<?xml version="1.0" encoding="utf-8"?>
<!-- Generator: Adobe Illustrator 27.0.0, SVG Export Plug-In . SVG Version: 6.00 Build 0)  -->
<svg version="1.1" id="Layer_1" xmlns="http://www.w3.org/2000/svg" xmlns:xlink="http://www.w3.org/1999/xlink" x="0px" y="0px"
	 viewBox="0 0 144.5 96.4" style="enable-background:new 0 0 144.5 96.4;" xml:space="preserve">
<style type="text/css">
	.st0{fill:#FFFFFF;}
</style>
<g>
	<path class="st0" d="M0,0v96.4h144.5V0H0z"/>
	<path d="M31.9,0h3.4c2.7,0.4,5.6,0.9,7.3,3.3c2.2,3.1,0,7.1-1,10.3c-0.3,0.9-0.3,2-0.4,3c-0.3,3.1,0.2,5.9,1.9,8.4
		c2.6,3.8,5,2.8,8.8,1.8c0.9-0.2,3.1-0.3,4-0.2c0.6-0.6,1-1.3,1.4-2c-0.5,0.1-1.5,0.4-1.8-0.2c0-0.3,0.3-0.4,0.5-0.6
		c1.4-1.8,2.2-7,1.2-9c-1.3-0.8-3.1-1.4-4.6-1.1c-0.9,0.2-1.2,0.6-1.7,1.2c-1-1.4-2.1-1.2-1.6-3.2c-0.4-0.4-0.4-0.5-0.5-1.2
		c-1.6,0.2-1.7,0.9-1.3,2.3c-0.3,0-0.6,0-0.9-0.1c-1.6-0.4-2.4-2.2-2.3-3.8c0.1-0.8,0.5-1.6,1.2-2.1c0.9-0.7,2.8-1.1,3.9-1.1
		c0.1-0.4,0.1-0.8,0.4-1.2c0.4-0.2,0.7,0.1,1.1,0c0.4-0.2,1-0.8,1.5-0.9c2.4-0.2,4.9,0,7.3,0.2c2.6,0.2,4.1,2,6.4,2.8
		c0.4,0.1,1.3,0.2,1.6,0.6c0.3,0.5-0.2,1.1-0.5,1.4c0.6,0.6,1.2,1.1,1.6,1.8c1.5,2,2.3,4.8,2.8,7.3c0.3,1.3,0.1,1.8,0.7,3.2
		c0.1-0.4,0.3-0.9,0.3-1.3c0.5-3.6,1.3-7.6,4.1-10.3c0.2-0.2,0.5-0.5,0.7-0.7c-0.4-0.4-0.9-0.9-0.5-1.5c0.5-0.3,1.6-0.4,2.3-0.7
		c1.3-0.6,2.7-1.7,3.9-2.2c2.2-0.8,4.6-0.5,6.9-0.5c0.8,0,1.7,0,2.6,0.2c0.7,0.1,0.9,0.8,1.1,1.4c0.3-0.4,0.5-0.8,1-0.6
		c0.3,0.3,0.3,1,0.6,1.1c2.3,0.5,5.1,0.8,5.1,3.8c0,1.8-0.9,3.3-2.8,3.4c-0.1,0-0.1,0-0.2,0c-0.6-0.8,1.1-2.3-2.1-2.3
		c0.9,1.8,0.3,3.5-1.7,4.1c-0.4-0.6-0.9-1.1-1.7-1.1c-2.1-0.1-4.4,0.2-4.6,2.8c-0.2,2.2,0.1,4.4,0.9,6.4c0.3,0.7,0.7,1.3,1,1.9
		c-1.3,0.3-1.7,0.7-0.6,1.9c1.4,0.1,2.7,0.1,4.1,0.3c3,0.5,5.3,1.7,7.9-0.7c2.1-1.9,2.9-4.6,3.1-7.3c0.1-1.9-0.2-3.9-0.7-5.7
		c-0.6-2.3-1.6-3.9-1.7-6.3c-0.1-3.8,2.8-5.7,6.1-6.4c0.5-0.1,1.1-0.2,1.6-0.3h3.8c1.3,0.2,2.5,0.3,3.8,0.7
		c9.1,2.4,15.6,8.7,21.2,15.9c2,2.6,4.2,5.7,6.6,7.8c-1.1,0.6-1.6,0.5-2.9,0.4c0.4,0.9,0.7,2.3,0.9,3.3c0.8,3.2,1.4,6.4,1.8,9.8
		c0.1,0.8,0.3,3.8,0.4,4.4v12.1c-0.1,0.9-0.2,2.9-0.2,3.9c-0.1,2.2-0.2,4.3-0.4,6.4l-0.8,12.7c-0.1,1.9-0.3,4.1-0.4,5.9
		c-2.9-1-3.8-3.2-4.5-5.9c-0.2,0.8-0.3,4.2-0.3,5c-2.9-1.4-4.2-3.7-5.1-6.6c-0.3,1-0.4,3.9-0.4,5c-2.6-1.3-3.9-3.5-4.7-6.2
		c-0.1-0.3-0.2-0.6-0.3-0.9c-0.3,1-0.7,4.5-0.7,5.6c-3-1.7-3.4-3.8-4.3-6.8c-0.2,1.1-0.4,2.2-0.5,3.4c0,0.3,0,1-0.1,1.1
		c-0.8-0.1-2.1-1.6-2.6-2.3c-1.4-2-2.1-5.3-2-7.7c-2,0.8-2.9,0.9-4.9,0.3c-0.7,0.4-1.7,1.1-2.3,1.6c-2.6,2.3-4.3,4.1-7.8,4.8
		c-1.3,0.3-2.7,0.3-4,0c-4.1-0.8-9.8-5-10.6-9.4c-1.6,0-3.4,0-5,0c2,3.1,10.2,9.5,13.5,12.1c1.2,0.9,3,2.2,4,3.2
		c0.4,0.4,0.5,1.6,0.3,2.2c-0.2,0.8-0.7,1.5-1.4,2c-0.4,0.3-0.8,0.4-1.3,0.5c-0.1,1.3-0.3,2.2-1.4,3.1c-0.9,0.8-2.1,1.2-3.3,1.1
		c-0.3,0-0.9-0.1-1.2-0.2c-0.2,2.4-2.4,3.7-4.7,3.5c-0.8-0.1-1.6-0.4-2.2-0.9c-0.4,1.3-0.9,2.3-2.2,3c-1.5,0.8-2.9,0.8-4.5,0
		c-0.5,1-1.3,1.8-2.4,2.1c-1.6,0.5-2.5,0-3.7-0.9c-0.7,0.5-1,0.8-1.9,1c-0.3,0.1-0.5,0-0.8,0.2h-0.1c-0.2-0.1-0.3-0.1-0.6-0.2
		c-1.5-0.4-1.9-0.7-2.7-2.1c-0.2,0.1-0.5,0.2-0.7,0.3c-1,0.3-2.7,0.4-3.7-0.1c-1.4-0.8-1.8-1.8-2.3-3.2c-1.4,1.2-3.6,1.3-5.2,0.3
		c-1.1-0.6-1.6-1.8-1.8-3c-3.4,0.8-5.1-0.8-5.9-4c-1.8-0.5-2.9-1.7-2.8-3.7c0-0.8,1.3-1.5,2-2c1-0.8,2-1.5,3-2.3
		c3.6-2.9,7.1-5.8,10.2-9.2c0.8-0.9,1.7-1.7,2.5-2.7c-1.4,0-3,0-4.4-0.1c0,5.9-6.8,10.2-12.1,9.9c-0.9,0-1.9-0.1-2.8-0.4
		c-1.4,0.7-2.7,1.4-4.2,2.1c-3.5-1-7-1.8-10.5-2.7c0-0.4,0.1-0.7,0.2-1c2.2-0.5,5.1-1.6,7.3-2.4c-1.4-1-3.7-2.9-4.8-4.1
		c-0.9,1.3-1.2,1.7-2.8,1.7c-0.1,1.3-0.3,2.6-0.6,3.8c-0.7,2.4-2,4.3-4.2,5.5c0.1-1.2-0.3-3-0.6-4.1c-0.2,0.6-0.3,1.2-0.4,1.8
		c-0.6,2.1-1.8,3.8-3.8,4.9c0-1.1-0.3-4.3-0.8-5.2c-0.1,0.1-0.6,1.9-0.6,2.2c-0.7,2.2-2.4,3.7-4.4,4.7c0.3-1.6,0.1-3.4-0.2-4.9
		c-0.7,2.7-2.6,5.4-5.2,6.6c0.2-1.8,0-3.6-0.2-5.4c-0.7,2.8-1.6,5.2-4.6,6.3c-0.2-1.8-0.1-4.2-0.2-6.1l-1-15.4
		c-0.1-1.6-0.2-3.2-0.3-4.9c0-0.8-0.1-2.2-0.2-2.9V42c0.1-0.3,0.2-1.5,0.2-1.9c0.1-1.3,0.3-2.6,0.4-3.8c0.4-3,1.1-6,1.8-8.9
		c0.2-0.9,0.4-1.8,0.7-2.6C1.7,25,1.4,25,0.2,24.4c2.2-1.9,4.5-5.2,6.4-7.6c5-6.3,11-12.8,18.8-15.5c1.3-0.4,2.6-0.8,4-1.1
		C30.1,0.2,31.3,0.2,31.9,0L31.9,0z M107.9,7.1L107.9,7.1c1.1,0.4,2.1,0.7,3.2,1c1.8,0.6,3.6,1.2,5.3,2c1.7,0.7,3.3,1.6,4.9,2.5
		c0.5,0.3,0.9,0.5,1.5,0.7c-0.3-0.1-3.3-0.3-3.5-0.2c0.2,0.2,2.7,0.3,3.1,0.3c-0.1,0.3-0.7,0.4-1,0.5c-1.9,0.7-4.1,0.4-6-0.2
		c-1.7-0.5-3.3-1-5-1.5c-0.5-0.1-1.7-0.5-2.2-0.5l-0.1,0l0.1,0c0.6,0.3,1.6,0.6,2.3,0.9c2.9,1.2,8.3,2.7,10,5.5
		c-0.3-0.1-1.7-0.5-2-0.5l-0.1,0l0.1,0c0.4,0.3,1.7,0.8,2.1,0.4c0.5-1.2-1.9-2.6-2.8-3c2.1,0.1,3.9-0.4,5.7-1.5
		c3.5,2.5,7.8,5.7,11.4,7.9c-3.8,1.6-8-1.5-11.3-3.2c-1.1-0.6-2.2-1.4-3.4-1.8c0.6,0.5,1.7,1.1,2.4,1.5c1.3,0.8,2.7,1.6,4,2.4
		c2,1.1,4.6,2.6,6.3,4.2c-0.4,0-4-2.5-4.7-2.7l0,0l-0.1-0.1l-0.1,0l0.1,0l0.1,0.1l0,0c1,0.9,3.3,2,4.5,2.8
		c-4.8,0.7-6.5-1.3-10.2-3.8c-0.8-0.6-1.7-1.3-2.7-1.7c0.5,0.8,1.8,1.7,2.6,2.2c0.7,0.6,5.7,4.6,5.6,5.3c-0.1,0-0.2,0-0.3-0.1
		l-0.1,0c0,0-3.7-2.7-3.8-2.8l0,0l-0.1-0.1l-0.2-0.1l-0.1-0.1l-0.1-0.1l0.1,0.1l0.1,0.1c0,0,0.1,0.1,0.2,0.1l0.1,0.1l0,0
		c0.4,0.6,3.1,2.6,3.8,2.8l0.1,0c0,0.1,0,0.1,0,0.2c-4.2,0.9-6.3-3.3-9.1-5.5l0,0l-0.1-0.1l0.1,0.1l0,0c0.6,1.1,5.4,6.3,6.4,7.2
		c-1-0.4-1.4-0.6-2.2-1.3c-0.1-0.1-0.7-0.6-0.8-0.7l0,0l-0.1-0.1l-0.1-0.1l-0.1-0.1l-0.1-0.1l-0.1-0.1l-0.1-0.1l-0.1-0.1l-0.1,0
		l-0.1-0.1l-0.1,0l0.1,0l0.1,0.1l0.1,0l0.1,0.1l0.1,0.1l0.1,0.1l0.1,0.1l0.1,0.1l0.1,0.1l0.1,0.1l0,0c0.4,0.6,1.6,1.5,2.3,1.9
		c0.2,0.1,0.5,0.2,0.5,0.3c-0.4,0.2-2,0-2.5-0.2c-0.7-0.3-0.8-0.5-1.3-0.8c-0.6-0.4-3-3.3-3.3-3.2c0.1,0.7,3.9,4.8,4.6,5.7
		c-0.9-0.5-1.4-0.9-2.1-1.6c-0.2-0.1-0.7-0.6-0.8-0.7l-0.1-0.1l0,0l0,0l0.1,0.1c0.4,0.5,2.1,2.3,2.8,2.4c0.1,0,0.1,0,0.2,0.1
		l-0.1,0.1c-0.3,0.1-0.8,0-1.2,0c-3.3-0.5-5-3.9-6.2-4.1c0.1-0.1,0.3-0.3,0.4-0.4c-0.6-0.3-1.8-1-2.4-1.3c2.3,0.4,4.9,0.3,6.3-1.8
		c-1-1-1.8-1.2-3-1.8l0-0.1c0.8-0.1,1.4-0.2,2.2-0.6c0.6-0.3,2.1-1.2,2.3-1.8c0-0.2,0-0.2-0.1-0.3c-1,0.4-6.4-1-7.7-1.3
		c-0.9-0.2-2.2-0.7-3.1-0.9l-0.1,0l0.1,0c2.4,1.4,7.3,2.7,10,2.9l0,0.1c-1.4,1.1-4.2,1.4-6,1.1c-1.8-0.2-3.5-0.9-5.2-1.5
		c-0.6-0.2-1.1-0.6-1.7-0.7l0,0l0,0c1.3,1.4,6.4,2.9,8.4,3.6c0.9,0.3,2.8,1.2,3.6,1.5c-2.5,0.3-4.2,0-6.7-0.6
		c-0.7-0.2-1.8-0.6-2.4-0.7l-0.1,0l0.1,0c1.8,1,6.3,1.9,8.3,1.7c-0.5,0.2-1.3,0.6-1.9,0.7c-3.1,0.4-7.2-0.6-10-2
		c0.1-0.6,0.2-1.5,0.1-2.2c-0.2,0.8-0.2,1.6-0.5,2.4c-0.8,2.7-2.5,5.1-4.9,6.6c-2.7,1.7-6.4,2.6-9.7,2.1c-0.4-0.1-1.1-0.4-1.5-0.5
		l0,0l0,0c1.8,2,6.1,1.2,8.4,0.4c1.2,1.3,6.6,4.9,8.4,4.7l0-0.1c-0.5-0.4-1.2-0.7-1.9-1l0.1,0c2.2-0.2,2.7,0,4.6-1.8
		c2.4,1.3,6.7,3,9.4,3.4c-0.9,0.3-0.9,0.2-1.8,0.3l0,0.1l0.2,0.1c-0.6,0.3-3.4,0.4-4.1,0.4c-1.9,0-4.4-0.5-6.1-1.4
		c-1.8,0.7-3.5,1.2-5.5,0.7c-2.7-0.7-4.7-3.1-6.7-4.8c1.3,2,3.5,4.1,5.6,5.3c0.8,0.4,1.7,0.8,2.6,1.2c-6.8,0.9-7.6,0-11.1-5.5l0,0
		l0,0c0.5,1.6,1.9,3.5,3,4.7c0.5,0.6,1.1,1.1,1.7,1.6c0.3,0.3,1.3,0.7,1.3,1.1c-0.5,0.3-3.3-1.6-3.8-2.1c-0.2-0.2-1-1-1.1-1
		c0.5,1,2.6,2.7,3.7,3c0.3,0.1,0.6,0.1,0.8,0.2c-0.8,0.3-3.6,0-4.5-0.4c-1.2-0.6-2.2-2.2-2.8-3.3c0.4,1.4,1,2.5,2,3.6
		c0.6,0.6,1,0.9,1.5,1.6c-2.3,0.7-3.4,0-4.9-1.8c-0.2-0.2-0.4-0.6-0.6-0.8l0,0l0,0c0.4,1.3,1.2,2.5,2.3,3.2c0.1,2.3,0,4.1,0.7,6.2
		c-0.2-0.1-0.4-0.2-0.6-0.2c-0.1-0.2-1.3-2.7-1.4-2.7c0,0.6,0.9,2.3,1.4,2.7c-1-0.1-2.4-1.4-2.9-2.2c-1-1.6-0.5-3.5-0.1-5.2l0-0.1
		l0,0.1c-0.4,0.7-0.7,1.5-0.8,2.2c-0.4,1.9,0,3.1,1.3,4.5c0.5,0.5,1,0.9,1.6,1.3c0.4,0.3,1.5,0.6,1.8,1c-0.1,0.1-0.3,0.2-0.4,0.2
		c-0.3,0.1-0.5,0.8-0.8,0.7c-0.6-0.1-1.2-0.4-1.6-0.7c0.3,0.9,0.6,1.4,1,2.2c1.3-0.6,1.4-0.9,2.1-2.2c0.6,0.7,1.9,2.2,3.1,1.9
		c0.6-0.2,0.5-0.9,0.8-1.3c0.4,0.1,0.8,0.1,1.3,0.2c0.2,1.4,0.5,3.3,2.3,3.4c1,0.1,1.7-0.6,2.4-1.2c0,1.4-0.1,2.3,1.1,3.3l0.6,0
		c1.1-0.5,1.7-1.1,2.4-2c-0.3,1.2-0.7,4,0.3,4.6c1.6,0.9,4-3.5,4.4-4.3c-0.2,1-0.5,2-0.8,3l1-0.6c1.1-2.3,1.9-9.3,2.2-12.1
		c-0.5,0.2-0.6,0.3-1.1,0.6c-0.1,3.2-2.2,11.3-5.4,12.8c-1.2-2.2,0.4-3.8,1.1-6c0.6-1.8,1-3.4,1.4-5.3l-1.1,0.5
		c-0.6,2.5-1.7,5.6-3.7,7.4c-0.3,0.2-0.7,0.4-1,0.3c-1.5-0.3-0.4-2.4,0-3.2c0.6-1.3,1.2-2.4,1.6-3.8c0.6-0.3,1.8-0.6,2.5-0.9
		c1.3-0.5,2-0.8,3.2-1.5c-1.9-0.1-3.8-0.8-5.3-1.9c3,1,6.7,0.5,9.4-1.3c-0.9-0.1-2.2-0.3-3.2-0.6c2.7-0.2,5-0.3,7-2.4
		c-0.4,0-0.6,0-1-0.1c-0.2-0.2,0-0.2-0.2-0.6c-0.4,0-0.8,0.4-1,0.4c-1.8,0-4.8-1.2-6.2-2.1c2.2,0.7,5.3,1,7.5,0.4
		c0.8-0.2,3.3-1,2.8-2.1c-0.9-0.1-1.5-0.1-2.4-0.3c1.8-0.4,2.4-0.7,3.7-2c-0.8-0.5-1.1-1.1-1.5-1.9c1.8,0.4,2.7,0.2,4.2-0.7
		c-0.6-0.4-1-0.6-1.5-1.1c1.5,0.2,2.2,0.2,3.7-0.4c-0.5-0.5-1-1-1.5-1.5c1.7,0.3,2.6,0.3,4.2-0.5c-0.6-0.6-1.2-1.4-1.8-2.1
		c2,0.9,4.6,1.2,6.5-0.2c-0.8-0.9-1.9-1.7-3-2.4c1.5,0.4,3.3,0.5,4.5-0.7c2.5,1.3,3.6,1.5,6.1,2.1c-0.9-1.2-2-2.5-2.9-3.8
		c-5-6.8-10.5-13.1-18.4-16.5c-4.4-1.9-9.9-2.8-14.5-1.2c-4.8,1.8-3,6-1.9,9.6c0.3,1,0.5,2.3,0.9,3.3c-0.2-2.8-1.2-5.9-0.9-8.6
		c0.4-4.5,6.8-4.5,10.1-4c10.2,1.5,17.5,9.2,23.3,17c0.9,1.1,1.9,2.2,2.7,3.3c-3.5-2.7-6.4-5.7-9.5-8.9c-3.4-3.4-7.6-6.2-12.1-8.2
		c-0.5-0.2-2.4-1-2.9-1c0.2,0.1,1.2,0.5,1.4,0.7c0.7,0.3,1.3,0.6,1.9,0.9c2.8,1.5,4.9,2.8,7.5,4.6c-2.3-0.2-5.9-1.5-8.2-2.2
		c-0.8-0.3-1.7-0.7-2.5-0.9l-0.1,0l0.1,0c0.4,0.2,1.9,0.8,2.4,1c3.2,1.4,5.7,2.5,9.2,2.7c1.3,1.1,2.5,2.2,3.7,3.4
		c2.8,2.7,5.1,5.4,8.3,7.7c-9.4-2.9-16.1-12.2-26-14.3C111.5,7.8,109.8,7.2,107.9,7.1L107.9,7.1z M29.6,7.2l-0.1,0.1L29.6,7.2l0.2,0
		L29.6,7.2z M29.4,7.4c-0.5,0.2-1.1,0.4-1.6,0.6c-2.3,1-4.7,1.8-7.1,2.4c-0.5,0.1-1.3,0.3-1.8,0.3l0-0.1c1-0.7,2-1.5,3-2.1
		C24,7,26.5,5.7,29,4.8c0.4-0.1,0.7-0.3,1.1-0.5c-0.4,0-1.3,0.4-1.7,0.5c-4.1,1.4-7.9,3.5-11.2,6.3C15,13,13,15,10.9,17.1
		c-1.6,1.6-4.4,4.5-6.3,5.7c0.7-0.8,1.5-1.6,2.1-2.4C13,11.9,21.2,2.9,32.4,2.2c2.5-0.2,5.4,0.2,7.5,1.8c0.6,0.5,0.9,1.6,0.9,2.4
		c0.1,3.2-1,6.1-1.1,9.4c0.4-1.1,0.6-2.3,0.9-3.4c0.7-2.4,2.4-5.3,1.2-7.8c-0.6-1.3-2.1-2.2-3.5-2.6c-4.7-1.5-11.1,0-15.4,2.1
		C16,7.6,10.7,13.6,6.2,19.7c-0.7,1-2.5,3-3,3.9l0,0l0,0c1.9-0.2,4.6-1.1,6.2-2.2c0,0,0,0,0,0c0.8,0.8,2,1.1,3.1,1.1
		c2.4,0,9.7-4.5,11.3-6.2l0.1,0l0.1,0l-0.1,0l-0.1,0c-0.3,0.1-1.5,0.9-1.9,1.2c-2.3,1.3-4.7,3-7.3,3.9c-1.7,0.6-3.1,0.6-4.7-0.3
		c0.3-0.2,0.6-0.4,0.9-0.6c3-1.9,5.8-4,8.7-6c0.6-0.4,1.2-0.8,1.7-1.2c1.4,1.1,3.1,1.7,4.9,1.9c-0.8,0.8-1.9,1.6-2.5,2.5
		c1.8-0.8,3-2,4.7-2.9c2-1,4.2-1.8,6.3-2.6c0.4-0.1,0.8-0.3,1.2-0.4l0.1,0l0.1,0l-0.1,0c-0.6,0-1.5,0.3-2.1,0.5
		c-2.9,0.6-5.9,2.4-8.9,1.9c-0.8-0.1-1.4-0.4-2.1-0.7c0.8-0.1,1.6-0.1,2.4-0.3c1.9-0.3,3.8-0.9,5.7-1.4c1.4-0.4,2.8-0.7,4.2-1.2
		c-0.3-0.1-6.2,1.5-7.1,1.8c-1.7,0.5-3.3,0.7-5.1,1l-0.7-0.3c1.5-0.8,2.9-1.6,4.4-2.3c1.3-0.6,2.7-1.2,4-1.7
		c1.1-0.4,2.2-0.8,3.4-1.2c0.6-0.2,2.2-0.7,2.7-1c-6.6,1.3-11,3.1-16.6,6.9c-1.8,1.2-3.5,2.4-5.3,3.7c-2.5,1.8-6.1,4.3-9.1,5
		c2.3-1.5,4.5-4,6.5-6c1.8-1.8,3.7-3.5,5.7-5.1c3-0.1,6.4-1.5,9.1-2.7C27.6,8.2,28.6,7.8,29.4,7.4L29.4,7.4L29.4,7.4z M115.2,7.6
		l0.2,0l0.1,0.1l-0.1-0.1L115.2,7.6z M59.6,10.4c1.6,0.4,2,0.5,3.2-0.7c0.5,0.5,1.7,2.5,2.1,3.2c-0.1-0.8-0.3-1.8-0.3-2.6
		c1.3,1.5,1.8,2.3,1.8,4.4c-0.3-0.7-0.6-1.3-0.9-2c0.1,0.5,0.3,1.7,0.3,2.2c-0.1-0.1-0.1-0.3-0.2-0.3c0,0.4,0.1,2,0.2,2.4
		c0.4-0.4,0.7-0.9,1-1.3l0.1,0c0.1,0.7,0.1,1,0.3,1.7c0-0.7,0-1.4,0-2.1c0,0,0.2-0.3,0.2-0.3c-0.1,0.5,0.2,1.3,0.2,1.9
		c0,0.9-0.2,1.7-0.5,2.5c-0.2-0.9-0.4-1.4-0.8-2.2c0,1.5-0.1,2.4-0.3,3.9c0.6-0.5,0.8-0.6,1.1-1.3c0.2,0.5,0.2,0.7,0.5,1.1
		c0.7-1.1,0.4-1.8,0.8-2.5c0.4,0.7-0.4,3.4-0.7,4.2c-0.3-0.6-0.5-1.2-0.8-1.7c-0.7,1.8-1.1,3-2.1,4.7c0.1,0,0.2-0.1,0.3-0.1
		c1.1-0.4,1.3-0.9,1.7-1.9c-0.1,2.8-0.2,3.5-2.2,5.6c1.9-0.3,3.2-1.8,3.7-3.6c0.2-0.8,0.2-1.5,0.2-2.3c0.4,1.7,0.4,3.2-0.3,4.9
		c1.8-0.7,2.3-2.3,2.4-4c-0.4-0.5-0.5-0.8-0.8-1.3c0.2,0.2,0.3,0.4,0.5,0.6c0.5,0.4,0.9,0.7,1.3,1.1c0.4-0.5,0.5-0.9,0.7-1.5
		c-1.8-1.7-1.7-4.5-2.3-6.7c-0.5-2-1-3.5-2.3-5.2c-0.9-1.1-1.6-1.3-2.5-2.2l-0.1-0.1c0.4-0.2,0.7-0.5,1-0.8c-1.6-0.6-3-1.4-4.5-2.3
		c-0.4-0.2-0.8-0.4-1.3-0.5c-1.4-0.3-6.4-0.7-7.6-0.3c-0.3,0.1-0.7,0.2-0.8,0.5c0.1,0.2,0.1,0.2,0.2,0.4c1.2-0.3,2.9,0.3,4.3,0.4
		c0.8,0.1,1.6,0.1,2.5,0.1l-1.4,0.8c-0.4,0.9-1,1.4-2,1.4c-0.9,0-1.9-0.5-2.3-1.3c-0.1-0.2-0.1-0.5-0.3-0.7
		c-0.2,0.3,0.4,1.2,0.7,1.5c1.2,1.2,2.5,1.4,4,1.4l0,0.1c-1.5,1.1-3.5-0.5-4.9-1c-1-0.4-1.8-0.5-2.9-0.7c0.8-0.2,1.5-0.2,2.4-0.2
		C52,7.1,52,6.9,51.8,6.7l-0.3,0c-0.2-0.1-0.4-0.6-0.7-0.8l-0.1,0c-0.1,0.2-0.1,0.5-0.1,0.8c-1.1,0-2.5,0-3.5,0.4
		c-1.9,0.7-1.5,2.3-1,3.8c0.5-0.8,1-1.3,1.9-1.5c2-0.4,5,0.2,6.7,1.3c0.2,0.4,0.3,0.7,0.4,1.1c-1.2,0.2-2.9-0.1-3.9,0.4
		c-0.6,0.3-0.5-0.1-0.9,0l0,0.1c0.2,0.6,0.7,0.4,1.2,0.2c1.3-0.5,2.7,0,4-0.1c0-0.2,0-0.2,0-0.3c0.1-0.6,0.4-0.5,0-1
		c-0.2-0.4,0.2-0.7,0.5-0.7c2.4-0.7,4.5,1.4,6.5,2.3C61.5,11.9,60.5,11.3,59.6,10.4z M110.4,10.9L110.4,10.9l0.2,0.1L110.4,10.9
		L110.4,10.9z M88.9,12.4L88.9,12.4L88.9,12.4c1.1-0.3,2.3-0.1,3.4,0c0.4,0.1,1,0.3,1.3,0.2l0-0.1l-0.4-0.2c0,0,0,0,0-0.1
		C91.8,11.9,89.8,11.3,88.9,12.4z M80.1,12.9L80.1,12.9c-0.5,0.5-1,1.7-1.4,2.2c0-0.3,0-0.9-0.1-1.1c-0.2,0.2-0.4,0.8-0.5,1
		c0.1-2,0.6-3.1,1.9-4.7c-0.2,0.9-0.4,1.5-0.4,2.4c0.9-1,1.3-2,2-3c-0.8-0.3-1.1-0.4-1.8-0.8c2.8,0.2,2.8,0.1,5.2-0.8
		c0,0.4-1.2,1.4-1.5,1.8c-0.6-0.1-1.4-0.4-1.7-0.1c-0.1,0.4,0.7,0.7,1,0.8c0.9,0.2,1.8-0.1,2.6-0.4c-0.9,0.9-2.8,2-3.3,2.9l0,0l0,0
		c2.2-0.9,3.9-3.7,6.5-2.4c2-0.6,3.9-1.1,6-1.3c1-0.1,2.4-0.2,3.3,0.5c0.5,0.4,0.5,0.9,0.5,1.4c1.4-2.5,0.5-3.7-2.1-4.3
		c-0.4-0.1-1-0.4-1.4-0.4c-0.1,0.2-0.1,0.3-0.1,0.5c-0.5,0.5-1.4,1.5-2,1.5l0-0.1c0.1-0.1,0.3-0.2,0.4-0.2c0.4-0.4,1.1-1.7,0.6-2.2
		l-0.2,0c-0.4,0.3-0.5,1.2-0.8,1.6c-0.7,0.7-1.5,1-2.3,1.6c-1,0-1.4,0.1-2.3,0.5c-0.3,0-1.4,0-1.5-0.3c0.8-0.7,4.4-0.2,4.3-1.5
		c-0.3,0-0.3,0.1-0.4,0.2c-1.5,0.8-2.8,0.4-3.3-1.2c-0.1-0.3-1.3-0.5-1.7-0.5c1.7-0.7,2.8-0.3,4.6-0.4c0.5,0,1.2-0.2,1.7-0.3
		c0.3,0.1,0.4,0.2,0.7,0.1C92.7,5.6,92.5,5,92.2,5c-2.4-0.2-6.8-0.7-9,0.5c-1.9,1-2.7,1.7-4.8,2.4c0.4,0.3,0.6,0.4,1.1,0.7
		c-3.2,2-4.5,4.8-5.2,8.4c-0.4,2.2-0.4,4-2,5.8c0.2,0.7,0.3,0.9,0.8,1.4c0.9-0.7,0.8-0.5,1.5-1.5l0.1,0c0,0.5-0.4,0.9-0.7,1.3
		c0.2,1.7,0.7,3.2,2.4,4c-0.7-1.8-0.7-3.2-0.2-5.1c-0.1,3,0.5,5.2,3.7,6.2c-1.8-2.6-1.8-2.7-2-5.9c0.6,1.4,0.3,1.6,1.8,2.3
		c-0.8-1.5-1.1-3.4-2-4.8c-0.3,0.6-0.5,1.1-0.8,1.7c-0.3-0.9-1-3.5-0.6-4.3c0.1,0.2,0.1,0.8,0.2,1.2c0.2,0.7,0.3,1,0.7,1.5
		c0.2-0.4,0.3-0.7,0.5-1.1c0.2,0,0.3,0.3,0.4,0.4c0.3,0.4,0.6,0.6,0.9,0.9c-0.7-1.6-0.7-2.3-0.9-4c-0.3,0.7-0.6,1.5-0.9,2.2
		c-0.5-2-0.2-2.3-0.1-4.2c0.6,0.4,0.9,1,1.3,1.6C79,15.7,79.6,14.1,80.1,12.9L80.1,12.9l0-0.1L80.1,12.9z M64.3,13.5L64.3,13.5
		c0.2,1.5,0.2,1.9-0.4,3.2c-0.2-0.6-0.4-1.1-0.7-1.7c0.1,0.6,0.2,1.1,0.3,1.7c0.1,0.3,0.1,0.8,0.1,1.1C64.9,16.7,65.3,15,64.3,13.5
		L64.3,13.5z M34.6,16l-0.1,0.1L34.6,16l0.2,0L34.6,16z M34.4,16.1c-3.5,0.9-6.9,2.7-10.6,1.6c1.7,2.2,2.5,2.8,5.4,3
		c-0.7,0.3-1.4,0.7-2,1c-0.6,0.3-1.4,0.9-2,1.1c0.5,0.8,0.9,1,1.7,1.5c-2.2,2.3-4,5.1-7.6,4.5c1.9-1.7,5.4-5.8,6.8-8
		c-2.7,2.6-5.3,6.9-9.7,5.7c0.8-0.9,1.7-1.8,2.6-2.6c0.8-0.8,5.2-4.2,5.5-4.9l0-0.2l-0.1,0c-0.7,0.5-1.4,1.2-2.1,1.7
		c-3.1,2.5-6.4,5-10.6,3.9c1.5-1.2,3.1-1.8,4.7-2.7c-1.9,0.5-4.4,1.2-5.7,2.7c2.1,1.4,4.2,1.3,6.4,0.3c-0.6,0.7-0.9,1.1-1.6,1.7
		c1,0.8,1.7,1.1,3,0.9c0.5,0,1-0.1,1.4-0.3c-0.5,0.5-1,1-1.5,1.5c1.1,0.9,2.1,1,3.4,0.8c-0.3,0.4-0.7,0.8-1,1.2
		c1.2,0.8,2.3,0.7,3.7,0.7c-0.2,0.1-0.7,0.3-0.7,0.4c0.3,0.3,2.1,0.4,2.6,0.4c-1.2,0.6-1.7,0.7-3.1,0.8c0.6,1.1,1.3,1.5,2.5,1.8
		c0.4,0.1,0.9,0.3,1.3,0.4c-1,0.2-1.7,0.3-2.8,0.5c2.7,2.6,7.2,2.1,10.6,1.4c-2.4,1.5-5.9,2.2-8.6,1.6c1.6,1.8,3.9,2.6,6.3,2.8
		c0.5,0,1.6-0.1,1.9,0c-0.5,0.3-3.5,0.5-4.1,0.5c2.2,2.4,6.2,2.2,9.1,1.8c-1.8,0.8-3.1,1.3-5.1,1.5c0.6,0.5,1.2,0.8,1.8,1.3
		c4.3,3.4,12.1,3.2,15.9-0.9c0.4-0.5,0.8-1.1,1.3-1.5c-0.1,0.9-0.3,2-0.6,2.8c-0.5,0.5-1.1,0.7-1.6,1.1c-3.3,2.3-7,1.1-10.7,0.8
		c1,1.9,2.3,3.7,1.7,6c-0.1,0.5-0.6,0.7-1,0.5c-1.4-0.9-2.3-3.4-3-4.9c-0.7-1.5-0.7-2.1-2.1-2.9c0.2,1.1,0.5,2.1,0.9,3.1
		c0.7,1.8,1.8,3.5,1.8,5.5c0,0.5,0,1.2-0.6,1.4c-0.8,0-2-2.5-2.4-3.2c-1.8-3.1-2.3-6.2-3.1-9.5c-0.3,0-0.6-0.1-0.8-0.1
		c0.2,3.2,1,7,1.7,10.2c1.7,0.4,2.9,1.3,3.4,3c0.5,0.2,1.1,0.4,1.6,0.6c1.3-1.3,0.9-2.6,0.6-4.2c0.5,0.7,1.1,1.7,2,1.9
		c2,0.3,1.9-2.2,1.7-3.4c1.5,0.8,3.2,1.8,4.3-0.1c0.5-0.8,0.4-2.6,1.3-2.6c0.6,0.8,0.6,1.4,1.6,1.7c0.2-0.1,0.5-0.1,0.7-0.2
		c0.6-0.3,1.4-1.5,2.1-1.4c0.3,0.2,1,1.4,1.5,1.9c0.3-1.1,0.5-1.6,1.1-2.6c-0.6,0.2-1.3,0.6-1.8,0.8l-0.4-0.6c1.8-1.4,4.4-2.4,4.7-5
		c0.2-1.6-0.6-3.7-1.2-5.2c0.4,1.8,1.2,4.8,0.2,6.4c-0.6,0.9-1.9,1.6-2.8,2.3c-0.5,0.4-1.2,1-1.7,1.4c0.8-1.7,1.3-4.2,1.7-6.1
		c0.2-0.7,0.3-1.5,0.5-2.1c1.1-0.9,1.3-1.9,1.5-3.2c0-0.1,0-0.2,0-0.3c-1,3.3-1.9,3.5-5.2,3.9c0.7-0.4,1.8-1.1,2.2-1.8l0,0l0,0
		c-1.1,0.8-1.6,1.3-2.9,2.1c1.7,0,1.9,0,3.6-0.2c-1.1,2.6-2.3,4.3-5.1,5.3c-1.4,0.5-3.1,1-4.6,1c0.4-0.1,2-0.9,2.3-1.2l0.1,0
		l0.1-0.1l0-0.1c0.8-0.2,3.6-2,4.1-2.7l0.1,0l0.1-0.1l0.1,0l-0.1,0L50.8,44l-0.1,0c-0.1,0.1-4.1,2.8-4.1,2.7l0,0.1l-0.1,0.1l-0.1,0
		c-0.6,0.3-2.5,1.1-3,1.2l0-0.1c0,0,0.1-0.1,0.1-0.1c1.9-1.1,4.1-3.2,5.4-4.9c1.3-1.6,1.3-2.2,3.2-3.2c1.1-0.6,2.6-3.2,2.9-4.5
		c-1.8,3.4-3.5,4.9-7.5,4.9c1.4-0.6,3.3-2.1,4.1-3.4l0,0l0.1-0.1l0.1-0.1l0.1,0l0.1-0.2l0.1-0.1L52,36.4l-0.1,0.2l-0.1,0l-0.1,0.1
		l-0.1,0.1l0,0l0,0c-1.7,1.4-2.5,2.9-5.1,3.4c1.2,0.5,1.9,0.7,3.3,0.5c-1.4,2.1-2.6,3.9-5.3,4.3c-0.9,0.1-5.3,0.8-5.8,0.4
		c0.5-0.1,0.5-0.1,1-0.3l0-0.1c-0.9,0.1-1.2,0.4-2.5,0.4c2.7-1.1,5.4-2.4,7.7-4.2c0.6-0.5,1.1-1.2,1.7-1.6c2.7-2.1,4.7-3.7,6-6.9
		c0.1-0.3,0.2-0.5,0.3-0.8c-0.5,0.7-0.8,1.5-1.3,2.2c-1.2,1.8-3.1,3.4-5.2,3.8c-0.8,0.2-2.8,0.3-3.5-0.2c1.3-0.1,3.6-1,4.5-2l0,0
		l0.1-0.1l-0.1,0.1l0,0c-1,0.4-2,1.3-3.2,1.5c-0.1,0-1.3,0.4-1.3,0.4c-0.2-0.1-0.3-0.1-0.6-0.2c0.1-0.2,1.6-0.7,1.9-0.8
		c2.5-1.1,4.1-3,5.8-5.1c2.1,0,3.9,0.1,5.9-0.8c-3.5,0.5-7.8,0.5-11-1.2c-3.5-1.9-5.4-4.5-6.6-8.2l-0.1,0l0.1,0c0,0.2,0,0.4,0,0.6
		c-1.8,1-6,2.2-8.2,2c-0.9-0.1-3.6-0.4-4.2-0.9c0.3-0.1,0.5,0,0.8,0.1c2.9,0.4,6-0.2,8.7-1.2c0.4-0.1,0.9-0.3,1.2-0.5l-0.1,0
		c-2.1,1.1-7.7,2-10,1.4c0.7-0.3,2.5-1.2,3.2-1.4c1.1-0.4,7.9-2.8,8.4-3.3l0-0.2c-0.3-0.1-1.1,0.3-1.4,0.4
		c-3.2,1.2-8.2,3.1-11.1,0.4C27.8,18.7,32.4,17.4,34.4,16.1L34.4,16.1L34.4,16.1z M117.8,17.3l0.2,0l0.1,0.1l-0.1-0.1L117.8,17.3z
		 M58.8,20.6c-0.3,0.6-0.6,1.8-0.8,2.5c0.4-0.1,0.7-0.2,1.1-0.4c0.2-0.3,0.3-0.5,0.2-0.9l-0.1,0c-0.2,0.2-0.3,0.3-0.5,0.4l-0.1,0
		C58.4,21.7,58.8,21.2,58.8,20.6L58.8,20.6L58.8,20.6z M123.2,23.2L123.2,23.2l0.1,0.1L123.2,23.2L123.2,23.2z M120.9,25.6
		L120.9,25.6l0.1,0.1L120.9,25.6L120.9,25.6z M63.8,32.8L63.8,32.8c0.1,0.4,0.4,1,0.6,1.3c1.7,2.1,3.9,0.8,4.2-1.5
		c0-0.1,0-0.2,0-0.3c-0.1,0-0.1,0.3-0.2,0.4c-0.3,1.1-1.4,2.3-2.6,2C64.8,34.4,64.3,33.5,63.8,32.8L63.8,32.8z M80.3,33.2
		c-0.2,0.3-0.6,0.8-1,1c-1.3,0.8-2.7-0.2-3.1-1.4c-0.1-0.2-0.1-0.5-0.2-0.7l-0.1,0l0,0.4C76.4,35.5,79.6,36,80.3,33.2L80.3,33.2
		L80.3,33.2z M99.6,33.2l0.1,0.1l0.2,0l0.1,0.1l0.1,0.1l0.1,0.1l0.2,0.1l0,0.1l0.2,0.1l0,0c0.5,0.6,3.6,2.2,4.4,2
		c-0.1-0.1-0.9-0.3-1.1-0.4c-0.6-0.2-1.3-0.5-1.9-0.8c-0.4-0.2-1-0.6-1.4-0.7l0,0l-0.2-0.1l0-0.1l-0.2-0.1l-0.1-0.1l-0.1-0.1
		l-0.1-0.1l-0.2,0L99.6,33.2z M96.6,35.1l0.1,0.1l0.1,0.1c0,0,0.1,0.1,0.2,0.1l0.1,0.1c0.1,0.1,0.1,0.1,0.2,0.1
		c0.2,0.2,0.6,0.6,0.8,0.6c-0.1-0.2-0.6-0.5-0.8-0.6l0-0.1l-0.2-0.1L97,35.4l-0.2-0.1l-0.1-0.1L96.6,35.1z M78.1,36
		c-1.6,1.7-3.1,1-4.1-0.8l0,0c0,0.1,0,0.3,0.1,0.4c0.6,1.6,2.3,2.8,3.7,1.2C77.8,36.6,78,36.3,78.1,36L78.1,36L78.1,36z M66.4,36
		L66.4,36c0.4,1,1.3,1.4,2.2,1.5c0.1,0,0.2-0.1,0.3-0.1c0.9-0.4,1.3-1,1.6-1.9l0.1-0.2l0,0C69.3,37.2,68.3,37.7,66.4,36L66.4,36z
		 M76.7,38.8L76.7,38.8c0.5,2,2.7,2.8,4,1c0.1-0.2,0.2-0.2,0.2-0.4C79.2,40.7,78.1,40.5,76.7,38.8L76.7,38.8z M90.5,39.3L90.5,39.3
		c0.1,0.2,0.2,0.3,0.4,0.4l0.1,0l0.1,0.1l0,0c0.3,0.5,1.5,1.2,2.1,1.4c-0.2-0.2-1.8-1.3-2.1-1.4l0,0l-0.1-0.1l-0.1,0
		C90.7,39.5,90.7,39.5,90.5,39.3L90.5,39.3z M79,41.6L79,41.6c0.1,0.4,0.5,1,0.8,1.3c1,1,1.4,1.3,2.8,1.4c-0.7,1-1.4,1.5-2.6,1.9
		c-0.7-0.2-1.4-0.7-1.7-0.8c0,0.7,1.4,1.3,2,1.5c-1.4,1.7-2.8,2.2-4.4,0.4c0.4,1.2,1,1.6,2.3,1.7c-1.2,1.3-2.1,2.2-3.8,1.2
		c0.7,1,1.3,1.1,2.4,0.4c1.4-0.9,2.5-2.2,3.6-3.3c3.7-3.6,6.3-7.3,7.6-12.4c0.4-1.5,0.9-3.6,0.2-5c0,0.4,0,0.8,0.1,1.3
		c-0.9-0.6-1.5-1.4-2.1-2.3c0.2,1.6,0.3,2.5,2.1,2.9c-0.1,0.6-0.2,1.3-0.4,1.9c-1-0.6-1.4-1.3-1.9-2.3c0.3,1.5,0.4,2,1.7,3
		c-0.1,0.7-0.4,1.3-0.6,2c-0.8,3.1-2.3,1.9-3.3-0.3c0.3,1.2,0.6,2.6,2.1,2.7l0.1,0c0.2,0.4-1,1.9-1.3,2.2c-1,0.8-2.3-1.1-2.8-1.8
		c0.5,1.5,1.1,2.8,2.9,2.3C82.4,44.5,81.5,43.9,79,41.6L79,41.6z M46.2,41.7l-0.1,0.1l-0.1,0.1L46,41.9c-0.1,0-0.1,0.1-0.2,0.1
		c-0.1,0.1-0.2,0.1-0.3,0.2l-0.1,0.1l-0.1,0.1c-1.2,0.5-2.4,1.4-3.7,1.9c-0.5,0.2-1.7,0.5-2,0.9c1.2-0.3,5-1.8,5.7-2.8l0.1-0.1
		l0.1-0.1c0.2-0.1,0.1,0,0.3-0.2c0,0,0.1-0.1,0.2-0.1l0.1-0.1l0.1-0.1L46.2,41.7l0.1-0.1L46.2,41.7z M76.5,43.6L76.5,43.6
		c0.5,1.4,1.8,1.7,2.9,0.7l0.1-0.1l0,0l0,0l-0.1,0.1C78,44.7,77.6,44.5,76.5,43.6L76.5,43.6z M64.8,44.4L64.8,44.4
		c0.5,0.5,1,0.5,1.5,0.6c-0.1,0.1-0.3,0.2-0.4,0.3c-1.8,1.4-3.1-0.1-4.2-1.5c1.9,0.4,3.2-1.2,4.1-2.7c-2.6,1.9-3.2,3.7-5.8,0.2
		c1.7,0.5,2.5-1,3-2.4c-1,1.3-2.4,3.1-3.7,0.9c-0.3-0.5-0.6-0.8-0.8-1.3l0-0.1c1.3,0.5,2.2-1.3,2.1-2.3c-0.1,0.4-0.6,1.7-1.2,1.8
		c-1.5,0.2-2.4-2.3-2.7-3.4c1.1-0.6,1.6-1.4,2-2.6c0-0.1,0,0,0-0.1c-0.4,0.1-0.9,1.6-1.5,2c-0.6,0.1-0.9-1.6-1-2.1
		c1.1-0.4,1.5-0.5,2.4-1.3c0.1-0.3,0.3-1,0.2-1.3c-0.8,1-1.2,1.2-2.3,1.8l0.5-2.2c-1.5,2.2-1.1,3.9-0.5,6.3c0.3,1,0.8,1.9,1.2,2.9
		c1.7,4.1,4.6,7.2,7.8,10.2c0.8,0.7,1.5,1.6,2.5,2.2c0.7,0.4,1.6,0.5,2-0.3l0-0.1c-0.4,0.2-0.6,0.4-1.1,0.3c-1-0.1-1.8-0.9-2.4-1.7
		c1.3-0.2,1.6-0.5,2.1-1.7c-1.7,1.8-2.9,1.3-4.4-0.4c0.1,0,0.2-0.1,0.3-0.1c1-0.3,1.5-0.9,1.9-1.8c0.8-0.3,1-0.7,1.4-1.4
		C66.8,44.5,66.4,44.8,64.8,44.4L64.8,44.4z M67.1,44.8L67.1,44.8c0.7,1.4,2.2,1.1,2.9-0.1c0-0.1,0-0.1,0-0.2
		C69.1,45.6,68.3,45.4,67.1,44.8L67.1,44.8z M55.2,45.3L55,45.4l0,0.2l-0.1,0.1l-0.1,0.1c-0.2,0.2-0.6,0.9-0.7,1.2
		c0,0-0.1,0.1-0.1,0.1c0,0.1-0.1,0.2-0.1,0.2l-0.1,0.2l0,0l0,0l0.1-0.2c0,0,0.1-0.2,0.1-0.2l0.1-0.1c0.2-0.2,0.6-0.9,0.7-1.2
		l0.1-0.1l0.1-0.1l0-0.2L55.2,45.3l0-0.2L55.2,45.3z M53.5,48.1L53.5,48.1L53.5,48.1L53.5,48.1L53.5,48.1z M58.8,49.3l0.2-0.1
		c-0.4,1.1-2.4,4-2.5,4.6l0,0.1l0-0.1l0,0c1.3-1.7,2.8-4.5,4.3-6l0.1,0c0.3,1.1-2.1,4.4-2.7,5.4c-0.2,0.4-0.5,0.8-0.6,1.2l0,0l0,0
		c0.1-0.1,0.6-0.9,0.7-1c1.3-1.8,2.3-3.3,3-5.5c0.4,0.6,0.4,1.3,0.6,2c0.1-0.6,0.1-2.2-0.3-2.6c-2-1.8-4.1,2-4.9,3.5
		c-0.8,1.6-1.9,3.2-2,5c0.6-2,3.6-6.4,5.2-7.9C59.5,48.3,59.1,48.8,58.8,49.3L58.8,49.3l-0.1,0.2l0,0c-0.4,0.4-3.2,4.1-3.3,4.9
		c0,0.1,0,0.2,0,0.3c0.4-1,0.5-1.2,1-2.1c0.4-0.7,2.1-2.7,2.2-3.2l0,0L58.8,49.3L58.8,49.3z M88.4,49.1L88.4,49.1
		c0.5,0.6,1.1,0.8,1.7,0.9C90,50,88.6,49.3,88.4,49.1L88.4,49.1z M88,54.1c-0.2-1.3-1.3-3.4-1.9-4.5l0.1,0c0.1,0.2,1.2,2.1,1.4,2.3
		l0.1,0.1l0.1,0.1l-0.1-0.1l-0.1-0.1c0-0.2-0.2-0.5-0.2-0.7c0.9,1.2,1.4,2.6,2.3,3.7c-1-2.4-2-4.8-3.6-6.8c-0.5-0.6-1.4-1.5-2.2-1.1
		c-1.1,0.5-1,2.1-1,3.1c0.4-1.3,0.3-1.3,1-2.4c0.3,1.2,2.6,5.6,3.4,6.5l0,0.1l0-0.1l0-0.1c-0.2-0.8-0.7-1.4-1-2.1
		c-0.4-0.8-2-3.1-1.8-3.9l0.1,0c0.2,0.3,0.1,0.4,0.4,0.6l0.1,0l0.1-0.2c0.4,0.4,0.5,0.8,0.8,1.2C86.7,51,87.2,52.6,88,54.1L88,54.1
		L88,54.1z M64,52.3l0,0.1l0.1,0.1l0,0.1l0,0.1c0.1,0.4,0.8,1.6,1,2c1,2.1,2.1,3.8,2.9,6c0.3,0.1,0.6,0.1,0.9,0.2
		c0.2,0.2,0.2,0.4,0.4,0.5c0-0.1,0.1-0.2,0.1-0.3c-0.2-1.1-4.4-7.2-5.4-8.3l0-0.1l0-0.1L64,52.4L64,52.3z M64.8,52.7L64.8,52.7
		l0.1,0.2L65,53c0.6,1.2,2,2.9,2.8,4.1c0.8,1.3,1.3,2.3,2.1,3.6c0.4,0,0.7-0.1,1.1-0.2c-0.2-0.3-0.8-1-0.8-1.3l0.1-0.1
		c0.3,0.1,0.4,0.1,0.7,0.3l0.1-0.1l0-0.1l-0.3-0.1l0-0.1c0.4-0.2,1.3-0.4,1.8-0.5C71.5,57.8,70,57,69,56.2c-0.7-0.5-1.6-1.4-2.2-1.8
		c0.5,0.5,2.7,2.7,2.9,3c-1.4-0.9-3.4-3.3-4.7-4.4L65,52.9L64.8,52.7L64.8,52.7z M77.8,55.6c-0.9,0.8-1.3,3.5-1.7,4.6
		c0.2,0,0.4,0,0.6-0.1c0.2-1.2,0.4-2.4,0.8-3.6C77.6,56.3,77.7,55.9,77.8,55.6L77.8,55.6L77.8,55.6z M34.7,58.1l-0.1-0.4l0.1-0.1
		l0.4,0.1c-0.1,0.2-0.1,0.1-0.1,0.3c0.1,0,0.2,0,0.3,0c-0.1,0.3-0.3,0.3-0.3,0.4c-0.1,0.3,0.3,0.2,0,0.5c-0.4,0.3-1.1-0.1-1.2,0.3
		c-0.1,0.3,0.3,1.1,0.5,1.4c0.2,0.3,0.6,0.5,0.8,0.8c0.4,0.5,0.5,1.1,0.8,1.7c-0.3-0.1-0.5-0.1-0.6-0.3c0-0.4,0-0.4-0.3-0.7l-0.1,0
		c-0.2,0.7,0.4,1.2,1,1.4c1.1,0.2,1.9,0.3,2.8-0.6l6.2,0c0-0.5,0-0.9,0.1-1.4c-2.2,0-4.4,0-6.6-0.1c0-0.4,0.1-0.8,0-1.1
		c-0.3-0.3-0.6-0.7-1-0.8c-0.1,0-0.2,0-0.2,0.1c-0.3,0.6,0.2,2.3,0.1,3.1c-0.2-0.6-0.3-1.2-0.6-1.7c0-0.5,0-0.8-0.3-1.2
		c-0.2-0.1-0.4-0.1-0.6,0c-0.4,0.2-1,0.7-1.5,0.6c-0.2-0.2-0.4-0.5-0.4-0.8c0.5-0.8,1.8-0.1,1.5-1.7c-0.1-0.3-0.1-0.5-0.4-0.7
		c-0.2,0-0.3,0-0.4,0.1c-0.4-0.2-0.2-0.7-0.7-0.6c-0.1,0.1-0.2,0.3-0.3,0.4c-0.3-0.2-0.2-0.5-0.4-0.7c-0.1,0-0.1,0-0.1,0.1
		c-0.1,0.3-0.2,0.5-0.2,0.8c-0.1-0.3-0.3-0.6-0.5-0.7c-0.1,0-0.1,0-0.2,0.1c-0.1,0.2-0.2,0.5-0.2,0.7c-0.2-0.2-0.2-0.3-0.5-0.4
		c-0.2,0.2-0.2,0.4-0.1,0.7c0,0.2,0,0.5,0,0.7c-0.2-0.3-0.4-0.7-0.7-1c0,0.7,0.1,1.2,0.3,1.9c-0.2-0.3-0.4-0.5-0.6-0.8l-0.1,0
		c-0.1,0.2-0.1,0.3,0,0.5c0.1,0.3,0.3,0.7,0.5,1c-0.2,0-0.6-0.5-0.8-0.4c0,0.3,0.7,1,0.7,1.1c-0.3-0.1-0.6-0.3-0.9-0.5
		c0,0,0,0.1,0,0.1c0.2,0.3,1,0.9,1,1.2c-0.2,0-0.3-0.1-0.5-0.2c0,0.1,0,0.2,0,0.3c0.2,0.2,0.4,0.4,0.6,0.5l0,0
		c-0.2-0.1-0.4-0.2-0.5-0.1l0.2,0.5c0.4,0.2,0.8,0.5,1.2,0.7c-0.3-0.1-0.6-0.1-0.9-0.3c-0.1,0-0.1,0-0.2,0c0.1,0.6,0.9,0.6,1.1,1
		c-0.2,0-0.5,0-0.7,0c0.5,0.3,1,0.7,1.5,0.8l0,0c-0.3,0-0.6,0-0.8,0l0.1,0.1c0.2,0.2,1.3,0.6,1.3,0.7c-0.3,0.2-0.6,0.1-0.9,0.2
		c0.7,0.2,1.4,0.3,2.1,0.4c-0.3,0.1-0.5,0.1-0.8,0.3l-0.1,0.1c0.2,0.2,0.7,0.1,1,0.1c0.3,0,0.5-0.1,0.8-0.1
		c-0.4,0.3-0.9,0.5-1.4,0.7c0.3,0,1.3,0,1.5,0.1c-0.1,0.2-0.2,0.3-0.3,0.4l0,0.1c0.3,0,0.9-0.1,1.2,0.1c-0.1,0.2-0.3,0.4-0.5,0.5
		c0.5,0.2,0.8-0.2,1.2-0.1c0,0.1-0.1,0.3-0.2,0.4c0,0.1,0,0.1,0.1,0.2c0.4,0.2,1.2,0.1,1.6,0.1c0.5,0,1,0.2,1.5,0.2l0.1-0.1
		c-0.2-0.2-0.5-0.2-0.8-0.4c-0.2-0.1-0.5-0.4-0.7-0.5c-0.2-0.1-0.5,0-0.6-0.3l0-0.2c-0.3-0.2-0.6,0-0.9-0.2c0.1-0.1,0.1-0.1,0.2-0.2
		c0-0.1-0.1-0.1-0.2-0.2c-0.2-0.1-0.5,0-0.8-0.1l0.2-0.3c0-0.1,0-0.1-0.1-0.1c-0.2-0.1-0.6,0-0.8-0.1l0.3-0.2l0-0.1
		c-0.3-0.1-0.5-0.2-0.8-0.2l0-0.1l0.2-0.1l0-0.1c-0.3-0.2-0.7,0-1-0.3c0.2-0.1,0.3-0.1,0.4-0.2c-0.3-0.4-0.7-0.1-1-0.4
		c0.1-0.1,0.2-0.2,0.2-0.2c0-0.1,0-0.1,0-0.1c-0.2-0.2-0.8-0.2-0.9-0.4l0.3-0.1l0-0.1c-0.2-0.3-0.6-0.3-0.9-0.6
		c0.1,0,0.2-0.1,0.4-0.1l0-0.1c-0.2-0.2-0.7-0.3-0.8-0.5c0.1-0.1,0.2-0.1,0.4-0.1l0.1-0.1c-0.1-0.2-0.1-0.3-0.3-0.4
		c-0.1-0.1-0.3-0.1-0.4-0.3l0,0c0.1,0,0.2,0,0.3-0.1c0-0.1,0-0.1-0.1-0.2c-0.1-0.1-0.3-0.1-0.4-0.2l-0.1-0.1l0-0.1l0.3,0l0.1-0.1
		c-0.1-0.3-0.5-0.4-0.5-0.6l0.1,0c0.1,0,0.2,0,0.4,0c0-0.2,0-0.2-0.1-0.4c-0.1-0.1-0.2-0.2-0.3-0.4c0.1,0,0.3,0,0.4,0l0.1-0.1
		c-0.1-0.2-0.2-0.4-0.3-0.5l0.1-0.1c0.2,0,0.3,0.1,0.4,0c0-0.2-0.3-0.5-0.2-0.7c0.2,0,0.3,0.1,0.5,0.1c0-0.1,0-0.3,0-0.4
		c0.3-0.1,0.5-0.1,0.7-0.4c0.1,0.1,0.2,0.2,0.3,0.2l0.1-0.2C33.7,57.7,34.4,57.9,34.7,58.1C34.6,58.1,34.7,58.1,34.7,58.1L34.7,58.1
		L34.7,58.1z M50.6,60.4c0.1-0.1,0.3-0.2,0.4-0.4c-0.2-0.4-0.4-0.7-0.8-0.8c-0.1,0-0.2,0-0.4,0c-0.2,0.1-0.2,0.1-0.3,0.3
		c0,0.2,0.1,0.2,0.2,0.4c0,0,0,0,0.1,0c0.1,0,0.1,0,0.2,0c0.3,0.2,0.4,1,0.8,0.9c0.1,0,0.2-0.1,0.2-0.2l0-0.1
		c-0.1-0.1-0.2-0.1-0.3-0.1C50.7,60.4,50.6,60.4,50.6,60.4z M50.8,61.2c0,0.1,0,0.1,0,0.2c0,0.1-0.1,0.2,0,0.3c0,0.2,0,0.2,0.1,0.3
		c0.3,0,0.6-0.1,0.8-0.2c-0.3,0.2-0.6,0.4-0.9,0.6c-0.1,0.1-0.2,0.2-0.2,0.4c0.2,0.1,0.6,0.1,0.8,0.1C51.2,63,51,63,50.7,63
		c0,0.2,0.1,0.3,0.2,0.4c0.4,0.1,0.9-0.1,1.3-0.2c0-0.5,0-1.1-0.3-1.5l-0.1,0c-0.3-0.3-0.4-0.5-0.6-0.8l-0.1,0L50.8,61.2z
		 M96.3,62.2l0.1-0.1c-0.1-0.2-0.7-0.5-1-0.5c-0.1,0-0.2,0-0.3,0.1c-0.2,0.2-0.3,0.4-0.3,0.7c0,0.3,0,0.7,0,1
		c0.1,0.2,0.2,0.3,0.4,0.4c0.2,0.1,0.5,0.1,0.7,0c0.2-0.1,0.3-0.2,0.4-0.4c0-0.1,0-0.2,0-0.4C96.3,62.7,96.4,62.4,96.3,62.2z
		 M55.3,63.5c0.3,0.1,0.5,0.2,0.8,0.4l0,0l0,0c-0.2-0.4-0.5-0.8-0.8-1.2c0.1,0,0.3,0,0.4-0.1c-0.1-0.3-0.6-0.5-0.6-0.7
		c0.2,0,0.4,0,0.5,0c0-0.1,0-0.2-0.1-0.3c-0.2-0.2-0.7-0.3-0.8-0.5l0.4,0l0-0.1c-0.3-0.4-0.7-0.2-1-0.5c0.1-0.2,0.3-0.1,0.3-0.3
		c-0.7-0.7-2.3-0.6-3.2-0.7c0.2,0.2,0.3,0.4,0.5,0.7c0.1,0,0.1-0.1,0.2-0.1c0.1-0.1,0.2-0.1,0.3-0.1c0,0.2-0.3,0.3-0.3,0.5
		c0.1,0.2,0.1,0.2,0.3,0.2c0.2-0.1,0.4-0.3,0.7-0.2l0.1,0.1c-0.2,0.1-0.4,0.2-0.5,0.3c0.1,0.1,0.1,0.1,0.2,0.2
		c0.3,0.1,0.6-0.1,0.9,0c-0.1,0.1-0.2,0.2-0.3,0.2l0,0.1c0.3,0.2,0.8,0.3,1.1,0.3c-0.3,0-0.5,0-0.7,0.2l0,0.1
		c0.3,0.3,0.9,0.4,1.3,0.6c-0.3,0-0.5,0-0.8,0.1L54.1,63c0.1,0.4,0.6,0.5,0.7,0.9c-0.2,0-0.4-0.1-0.6,0c0,0.2,0,0.3,0.1,0.4
		c0.2,0.2,0.4,0.4,0.5,0.6L54,64.7c0.1,0.2,0.2,0.4,0.3,0.6c-0.2,0.1-0.3,0-0.5,0.2c0,0.3,0.2,0.7,0.3,1L53.6,66
		c0,0.3,0,0.6-0.1,0.9l0.5,0.8c-0.2-0.2-0.4-0.4-0.6-0.5l-0.1,0.1c-0.2,0.4,0,0.8,0.1,1.2c-0.1-0.2-0.3-0.5-0.5-0.6l-0.1,0
		c-0.1,0.2,0,0.7-0.1,0.9c-0.1-0.1-0.2-0.3-0.3-0.4c-0.3,0.3-0.5,0.4-0.5,0.8c0,0.1,0,0.1,0,0.2l-0.1,0c-0.1-0.1-0.2-0.2-0.4-0.2
		c-0.3,0.3,0,0.6-0.2,0.9c-0.1-0.2-0.1-0.4-0.3-0.5c-0.2,0.1-0.2,0.1-0.3,0.3c-0.1,0.2-0.2,0.4-0.2,0.6c0-0.2,0-0.3-0.1-0.5
		c-0.1,0-0.2,0-0.3,0.1c-0.2,0.2-0.3,0.6-0.4,0.8l-0.1,0l-0.1-0.4l-0.1-0.1c-0.2,0.1-0.4,0.3-0.5,0.5c0,0,0,0.1,0,0.1l-0.1-0.2
		c-0.1,0-0.2,0-0.3,0.1C48.1,70.8,48,70.9,48,71c-0.2,0-0.1-0.2-0.4-0.1c-0.1,0.1-0.2,0.3-0.3,0.5c-0.1-0.2,0-0.2-0.2-0.3
		c-0.3,0-0.4,0.2-0.6,0.4l-0.1-0.2c-0.7-0.1-2.2,1.1-2.8,1.5c-0.1,0.1-0.2,0.1-0.2,0.2l0,0l0,0c0.4-0.1,0.7-0.3,1.1-0.4
		c0.1,0.2-0.1,0.5-0.2,0.7c0.3-0.2,0.5-0.4,0.8-0.6c0.1-0.1,0.3-0.2,0.4-0.2c-0.1,0.1-0.1,0.3-0.2,0.4l0.1,0c0.4-0.1,0.7-0.4,1-0.7
		L46,73.1c0.3-0.2,0.6-0.5,1-0.8l0.1,0c0,0.2,0,0.3,0,0.5l0.1,0c0.3-0.2,0.5-0.6,0.8-0.9c0,0,0,0,0,0c0.1,0.2-0.1,0.4,0,0.7l0.1,0
		c0.3-0.2,0.5-0.6,0.8-0.9l0.1,0c0,0.2,0,0.3,0,0.5l0.1,0c0.3-0.2,0.4-0.6,0.7-0.9c0.1,0.2,0.1,0.3,0.2,0.5c0.3-0.4,0.6-0.9,0.9-1.3
		c-0.1,0.4-0.2,0.8-0.2,1.2l0,0l0,0c0.5-0.4,0.6-1.1,1-1.5c0.1,0.1,0.1,0.6,0.1,0.7c0.4-0.1,0.4-0.9,0.7-1.2
		c0.2,0.2,0.2,0.4,0.2,0.6c0.1-0.2,0.2-0.9,0.4-1l0.2,0.2c0.1-0.2,0.1-0.5,0.2-0.8c0.2,0.1,0.3,0.3,0.4,0.5c0-0.3,0.1-0.7,0.2-1
		l0.1,0c0.1,0.2,0.2,0.3,0.2,0.5c0,0,0,0,0,0.1c0.3-0.3-0.1-0.9,0.2-1.3c0.2,0.1,0.2,0.3,0.3,0.5c0.1-0.5-0.1-1-0.2-1.5l0.6,0.4
		c0-0.3-0.1-0.7,0.1-0.9c0.2,0.1,0.3,0.3,0.4,0.5l0,0l0,0c0-0.5-0.1-1-0.3-1.4l0-0.1l0.4,0.2c0-0.3-0.1-0.5-0.2-0.8l0.1,0l0.3,0.2
		l0,0l0,0C55.9,64.2,55.7,63.9,55.3,63.5z M64.6,64.6L64.6,64.6c-0.5,0.6-0.9,1.3-1.3,1.9c-0.7,1-1.4,1.9-2.1,2.8
		c-1.3,1.5-2.6,3-4,4.4c-2.1,2.1-4.3,4-6.6,5.8c-0.8,0.6-1.6,1.4-2.5,1.9c-0.3,0.2-0.7,0.3-1,0.4c-0.3,0.1-0.6,0.2-0.9,0
		c-0.1-0.2,0-0.2,0.1-0.3c1.4-1.4,3.1-2.7,4.6-4c3.5-3,6.7-6.3,9.8-9.7c0.8-0.9,1.9-1.9,2.4-3c0,0,0,0,0-0.1l0,0l0.1-0.1l-0.1,0.1
		l0,0c-0.5,0.5-0.9,1.1-1.3,1.6c-0.7,0.9-1.4,1.7-2.2,2.5c-3.4,3.4-7.2,6.6-11,9.5c-0.7,0.6-2.6,1.8-3.1,2.4
		c-0.1,0.1-0.2,0.3-0.2,0.5c0,0.4,0.2,0.8,0.5,1.1c0.4,0.4,1,0.6,1.6,0.6c0.3,0,0.9-0.2,1.1-0.2c-0.1,0.2-0.2,0.4-0.2,0.6
		c1.1-0.7,2-1.8,2.9-2.7c4.3-4.2,8.2-8.7,11.7-13.5C63.5,66.4,64.2,65.6,64.6,64.6L64.6,64.6L64.6,64.6L64.6,64.6z M89.6,64
		c-0.2,0.3-0.5,0.8-0.4,1.1l0.1,0c0.2-0.1,0.3-0.3,0.5-0.4c-0.2,0.4-0.3,0.7-0.3,1.1l0.1,0.1c0.2-0.1,0.3-0.3,0.5-0.4
		c-0.1,0.4-0.3,0.9-0.3,1.4c0.3-0.3,0.5-0.6,0.8-0.9c-0.2,0.5-0.3,1-0.4,1.6c0.1-0.2,0.3-0.4,0.5-0.6l0.1,0c0.1,0.3-0.1,0.7,0,0.9
		c0.2-0.1,0.4-0.4,0.5-0.6c-0.1,0.5-0.1,1,0,1.5c0.2-0.2,0.4-0.8,0.6-0.9l0.1,0.1c0,0.3-0.1,0.8,0.1,1c0.2-0.1,0.4-0.4,0.5-0.6
		c0,0.4,0,0.9,0.2,1.3l0.1,0c0.2-0.1,0.3-0.4,0.3-0.6c0.2,0.4,0.2,1,0.2,1.4l0.3-1.1c0.1,0.3,0.1,0.8,0.2,1.1c0.1,0,0.1,0,0.1-0.1
		c0.2-0.3,0.2-0.6,0.3-0.9c0,0.4-0.1,0.9,0.1,1.3l0.1,0c0.2-0.2,0.3-0.4,0.4-0.7l0.1,0c0,0.3,0,0.6,0.1,0.9l0.1,0.1
		c0.1-0.2,0.2-0.7,0.4-0.8c0,0,0,0,0,0c-0.1,0.4,0.1,1,0.2,1.4c0.2-0.5,0.4-1,0.7-1.4c-0.1,0.4-0.2,0.8-0.1,1.2l0.1,0.1
		c0.2-0.1,0.2-0.1,0.3-0.3c0.1-0.2,0.1-0.4,0.3-0.5l0.1,0.1c0,0.3-0.2,0.6-0.1,0.9c0.2,0.1,0.2,0.1,0.4,0c0.1-0.2,0.1-0.4,0.2-0.6
		l0.1,0c0.1,0.3,0,0.7,0.2,0.8l0.1,0c0-0.2,0-0.6,0.1-0.7c0,0.2,0,0.4,0,0.6c0.1,0.1,0.2,0.2,0.4,0.2c0.1-0.2,0.2-0.6,0.3-0.7
		c0.1,0.3-0.1,0.6,0.1,0.9c0.2,0.1,0.3,0,0.5,0c0.2-0.3,0.1-0.6,0.2-0.9c0.3,0.3,0,0.9,0.5,0.9c0.2-0.2,0.3-0.9,0.4-0.9
		c0,0.3,0,0.5,0,0.7l0.1,0.1l0.3,0c0.2-0.2,0-0.6,0.2-0.9c0.2,0.2,0.2,0.9,0.4,0.9c0,0,0.1,0,0.2,0c0.1-0.2,0.1-0.6,0.1-0.9
		c0.1,0.3,0.2,0.6,0.4,0.8c0.2,0,0.2,0.1,0.3,0c0-0.2-0.1-0.5,0-0.7c0.2,0.2,0.2,0.5,0.4,0.6c0.2,0,0.2,0,0.4-0.1
		c0.1-0.3-0.1-0.8-0.2-1.1c0.1,0.2,0.3,0.3,0.4,0.5c0.1,0.1,0.2,0.2,0.3,0.3l0.1,0c0.1-0.3,0-0.7-0.1-1c0.1,0.2,0.3,0.3,0.4,0.5
		c0.1,0.1,0.2,0.1,0.4,0.1l0.1-0.2c0-0.3-0.2-0.7-0.4-1c0.1,0.1,0.2,0.2,0.3,0.3c0.2,0.2,0.5,0.5,0.8,0.5c0.1-0.4-0.3-1.1-0.5-1.4
		c0.2,0.3,0.7,1,1.1,1l0.1-0.1c0-0.3-0.4-0.9-0.6-1.2c0.3,0.3,0.6,0.7,1.1,0.8l0.1-0.1c0-0.2-0.5-0.8-0.6-1.1
		c0.2,0.2,0.5,0.5,0.8,0.6c0.1,0.1,0.2,0.1,0.4,0c0,0,0-0.1,0-0.1c0-0.4-0.4-0.7-0.7-1c0.2,0.1,0.4,0.2,0.6,0.3
		c0.2,0.1,0.5,0.2,0.7,0.1l0-0.1c-0.2-0.4-0.6-0.7-1-1.1c0.5,0.3,0.9,0.5,1.4,0.5c0.1,0,0.1,0,0.1-0.1c-0.2-0.4-0.8-0.7-1.2-0.9
		c-1.4,1.6-3.2,2.8-5.2,3.4c-2.8,0.8-5.4-0.3-7.8-1.7c-0.3-0.2-0.2-0.5-0.5-0.6c-0.1,0-0.2,0.1-0.4,0.1c-0.2-0.2-0.2-0.4-0.2-0.6
		c-0.2-0.1-0.2,0.1-0.4,0.2c-0.2-0.2-0.1-0.5-0.3-0.7c-0.1,0.1-0.2,0.1-0.3,0.1c-0.3-0.2-0.1-0.5-0.3-0.8c-0.1,0-0.3,0.1-0.4,0.1
		c-0.1,0-0.1-0.1-0.1-0.2c0.1-0.2,0.1-0.3,0.1-0.5c-0.1-0.2-0.2-0.2-0.4-0.3c-0.2,0-0.4,0.2-0.6,0.3c0.1-0.2,0.3-0.4,0.5-0.6
		c-0.1-0.4-0.2-0.9-0.4-1.3l-0.2,0l0-0.1c0,0,0-0.1,0-0.1c0.1-0.4-0.1-0.9-0.1-1.3c0.1-1.5,1-1,1.4-1.3c0-0.1,0-0.1,0-0.2
		c-0.1-0.3-0.4-0.8-0.6-0.9c-0.1,0.2,0,0.4,0.1,0.6c-0.1,0.1-0.6-0.6-0.8-0.6c0.1,0.3,0.3,0.6,0.4,0.9c-0.3-0.2-0.6-0.5-0.9-0.6
		c-0.2,0.1-0.2,0.1-0.3,0.3c0,0.2,0.3,0.2,0.4,0.3c-0.2,0.1-0.5,0.1-0.7,0.3c-0.2,0.1-0.2,0.2-0.2,0.3l0.1,0.1l0,0
		c0.2,0,0.3-0.1,0.5,0.1c-0.2,0.1-0.4,0.3-0.6,0.4c-0.1,0.1-0.2,0.2-0.2,0.4l0.1,0.1l0.9-0.4c-0.3,0.2-0.5,0.5-0.8,0.7
		c-0.1,0.1-0.2,0.2-0.2,0.4l0.1,0.1c0.2,0,0.3-0.1,0.5-0.1c-0.1,0.2-0.4,0.7-0.4,0.9C89.3,64.3,89.4,64.1,89.6,64z M80.1,64.8l0,0.1
		l0.1,0.1l0,0.1l0,0.1c0.5,1.2,1.5,2.4,2.3,3.5c3.9,5.2,8.4,10.2,13.3,14.4c0.1,0.4,0.2,0.8,0.2,1.1L96,84.4c-0.6,0-3.3-2.3-3.9-2.8
		c-5.4-4.7-9.8-10.4-13.1-16.7c0,0.4,0.8,1.9,1,2.2c1.3,2.6,2.7,5.2,4.3,7.7c1.7,2.6,3.7,5,5.7,7.4c1.3,1.5,2.7,3,4,4.6
		c-0.7-0.3-1.4-0.6-2.1-1.1c-1.9-1.3-3.5-3.2-5-4.9c-3.2-3.9-6-8.1-8.1-12.8c-0.5-1-0.8-2.3-1.4-3.2c0.2,1.6,0.9,3,1.4,4.5
		c2,5.1,4.5,9.9,7.5,14.5c0.6,1,1.3,2,2,2.9c0.4,0.6,0.9,1.2,1.3,1.8c0.1,0.2,0.2,0.3,0.3,0.5c-0.2,0.1-0.4,0-0.6-0.1
		c-1-0.6-2-1.6-2.7-2.5c-4.7-5.3-7.8-12.9-10.1-19.6l-0.3,0.8c1.1,4,7.1,21.2,10,22.8c0.7,0.4,1.5,0.4,2.2,0.2
		c0.6-0.2,1.4-0.6,1.7-1.2c0.5-1,0-2.5-0.3-3.5c1.2,0.8,2.5,1.7,4,1.4c0.7-0.1,1.3-0.5,1.8-1.1c0.7-0.9,0.5-2,0.5-3
		c0.8,0.1,1.7,0.1,2.4-0.5c0.3-0.3,0.5-0.7,0.5-1.2c0-0.3-0.1-0.6-0.1-0.9c-1-1-2.3-1.7-3.4-2.6c-1.9-1.5-3.8-3-5.6-4.5
		c-1.9-1.6-3.8-3.3-5.6-5c-0.6-0.6-1.4-1.7-2.1-2.2c0-0.1,0-0.1-0.1-0.2L82.1,66l0-0.1l0,0.1l0.1,0.1l0.1,0.2l0.1,0
		c0.4,0.9,1.7,2.1,2.4,2.8c2,2,4.1,4,6.2,5.9c1.7,1.5,6.9,5.6,7.8,7.2c-1.2-0.4-2.3-1-3.4-1.8c-2.3-1.6-4.4-3.6-6.4-5.5
		c-1.8-1.7-3.7-3.4-5.3-5.3c-1.2-1.4-2.1-2.9-3.2-4.4l0-0.1l0-0.1l-0.1-0.1L80.1,64.8z M65.8,65.1l-0.2,0.1l0,0.1c0,0,0,0,0,0
		c-0.4,0.6-0.7,1.3-1.1,1.9c-0.5,0.9-1.1,1.8-1.7,2.6c-3,4.3-7.3,9.4-11.5,12.6c-1,0.8-2.1,1.5-3.2,2.1c0.3,0.9,0.7,1.8,1.6,2.3
		c0.7,0.4,1.5,0.3,2.3,0.1c1-0.3,1.8-1.1,2.6-1.7c-0.6,1.2-0.9,2.3-0.5,3.6c0.2,0.5,0.5,1,1,1.3c0.7,0.4,1.9,0.5,2.7,0.2
		c1.4-0.5,2.9-4.1,3.5-5.4c1.8-3.8,3.4-7.7,4.8-11.6c0.7-1.9,1.5-3.9,2-5.9l-0.3-0.6c-1.5,5.1-4,10.1-6.7,14.6
		c-0.7,1.1-1.5,2.2-2.2,3.3c-0.7,1-2.9,4-4.1,4.2c-0.1,0-0.1,0-0.2,0c0-0.2,0.2-0.5,0.3-0.7c0.6-1,1.2-1.9,1.8-2.8
		c1.2-1.9,2.3-3.8,3.5-5.7c0.9-1.6,7-13.3,6.6-14.1l-0.1,0c-0.4,0.6-0.7,1.4-1,2.1c-0.5,1-0.9,1.9-1.5,2.9
		c-2.8,4.9-6.4,10.3-10.7,14c-0.6,0.6-1.6,1.4-2.4,1.6c-0.2,0-0.4,0.1-0.5,0c0.3-0.5,0.8-0.9,1.2-1.3c1-1.2,2.1-2.3,3.1-3.5
		c3.5-4.2,6.5-8.7,9.3-13.4c0.5-0.8,1.2-1.8,1.4-2.7l0-0.1L65.8,65.1l0-0.2L65.8,65.1z M93.7,66.4L93.7,66.4
		c0.1,0.1,0.1,0.2,0.2,0.2c0.5,0.4,1,0.8,1.6,1.2c1.5,1,2.9,1.7,4.7,1.7c2.5-0.1,4.4-1.4,6.1-3.1c0.3-0.4,0.5-0.7,0.7-1.1
		c-0.7-0.3-1.3-0.6-2.1-0.7c-1.4-0.3-3.4-0.1-4.9-0.1c-0.4,0.7-1.1,1.3-1.8,1.7C96.9,66.7,95.3,66.9,93.7,66.4L93.7,66.4z M32,72.2
		c2.2,0,4.3-0.2,6.5-0.4c-1.7,0.6-5.7,0.7-7.6,0.8c2.1,0.4,4.2,0.3,6.3,0c0.8-0.1,1.8-0.4,2.6-0.4c0,0-0.1,0-0.1,0
		c-1.2,0.4-3.3,0.7-4.7,0.9c-0.5,0.1-1,0.1-1.5,0.2c0,0,0,0-0.1,0c2.1,0.1,4.1-0.1,6.1-0.5c-1.2,0.6-2.4,0.8-3.6,1.1l1.3,0.2
		c0.2,0,0.5,0,0.8,0c1.3-0.3,4.7-2.4,5.9-3.2c-1.2-0.1-2.4-0.3-3.5-0.4c-0.9-0.1-2-0.4-3-0.3c-1,0.1-2,0.6-2.9,1
		c0.9,0,2.2-0.3,3.1-0.1C35.8,71.5,33.9,71.3,32,72.2z M141,79.6c-2-3.3-1.6-10.4-1.5-14.2c0-6.9,0.2-13.9-0.4-20.8
		c-0.2-2.4-0.5-4.7-0.9-7c-0.6-3.1-1.6-6.2-3-9.1c-0.5-1-0.9-2-1.5-3c-0.3,0.2-0.5,0.4-0.8,0.6c1.2,2.2,2,4.6,2.7,7.1
		c2.8,10.7,2.1,22.1,1.2,33c-0.2,2.4-0.4,4.7-0.6,7.1c-0.1,1.7-0.3,3.6-0.1,5.3c-1-1.2-1.5-2.9-1.6-4.4c-0.3-2.6-0.1-5.2,0.1-7.8
		c0.1-1.6,0.1-3.2,0.1-4.8c0.3-9.3,0.2-19.2-3-28.1c-0.7-1.9-1.4-3.7-2.6-5.4c0.6,1.6,1.1,3.3,1.5,4.9c0.7,2.9,1.1,5.9,1.4,8.8
		c0.3,3.1,0.5,6.1,0.5,9.2c0,1.8-0.1,3.5-0.2,5.3c-0.1,3.6-0.4,7.1-0.7,10.7c-0.3,3.2-0.9,6.4-1.1,9.6c-0.5-1.2-0.8-2.4-1-3.7
		c-0.2-1.4-0.1-2.8-0.2-4.2c0-3.5,0.1-7,0.2-10.5c0.2-6.6,0.1-22.6-3.9-27.9c0.6,2.2,1,4.4,1.3,6.6c1,7.8,1,16.1,0.2,23.9
		c-0.3,3.2-0.9,6.3-1.4,9.4c-0.2,1.4-0.3,3-0.6,4.4c-0.9-2.4-1-5-1-7.6c0-0.8,0.3-4,0.1-4.5l-0.1-0.1c-0.2,0.1-0.2,0.2-0.3,0.4
		c-0.2,0.7-0.2,1.5-0.2,2.2c-0.2,3.3-0.4,7.5,1.3,10.4c0.2,0.3,0.3,0.6,0.5,0.8c0.3-1.3,0.5-2.7,0.8-4.1c0.7-3.4,1.5-6.7,1.8-10.2
		c0.3-3.5,0.5-7,0.6-10.4c0-0.7,0-1.5,0-2.2c0.3,2.4,0.2,5.2,0.1,7.7c-0.1,3.5-0.2,7-0.1,10.6c0,2.1,0,4.2,0.5,6.3
		c0.4,1.5,0.9,2.7,2,3.9c0.1-2.9,0.8-5.8,1.2-8.6c0.8-5.4,1.3-11,1.3-16.4c0-1.3,0.1-2.5,0-3.8c0.4,1.3,0.3,2.8,0.3,4.1
		c0.1,3.1,0.1,6.1,0,9.2c-0.1,4.1-0.6,9.8,0.5,13.6c0.4,1.5,1.2,2.8,2.3,3.8c0.1-1.5,0.3-3,0.4-4.6c0.3-3.6,0.7-7.2,0.9-10.8
		c0.2-2.6,0.4-5.2,0.5-7.8c0.1-2.4,0-4.9,0.1-7.3c0.2,1.5,0.2,3.2,0.2,4.7c0,1.5,0.1,3,0,4.6c0,2.5-0.1,5.1-0.1,7.6
		c0,1.1-0.1,2.3,0,3.5c0.1,2.9,0.5,9.2,2.9,11.1c0.3-5.1,0.6-10.2,1-15.3c0.4-6.2,0.8-12.4,0.7-18.6c0-2.1,0-4.1-0.1-6.2
		c-0.3-3.8-1-8.6-2-12.3c-0.4-1.4-0.7-3.2-1.3-4.5l-0.9-0.3c0.9,3.2,1.9,6.3,2.5,9.6c0.6,3,1,6.1,1.2,9.1c0.1,1.7,0.1,3.4,0.1,5
		c0,7.1-0.6,14.2-1.1,21.3c-0.2,2.6-0.3,5.2-0.3,7.8C141,77.4,141.1,78.5,141,79.6z M30.4,4.2L30.4,4.2L30.4,4.2z M30.3,4.3h0.1
		H30.3z M115.1,4.5L115.1,4.5L115.1,4.5z M115.2,4.6h0.1H115.2z M53.3,6.8L53.3,6.8L53.3,6.8z M55.1,6.7c-0.1,0.6-0.2,0.8-0.6,1.2
		C55.1,8,55.6,8,56.2,7.8c0.3-0.2,0.6-0.3,0.8-0.5C56.4,7,55.7,6.9,55.1,6.7z M89.3,7c-0.3,0-0.6,0.1-0.8,0.2
		c-0.1,0.2-0.1,0.2-0.1,0.4c0.2,0.3,0.4,0.4,0.7,0.5c0.2,0.1,0.5,0.1,0.7,0.1c0.3-0.1,0.6-0.2,0.8-0.6c0-0.1,0-0.2,0-0.3
		c-0.1-0.2-0.2-0.3-0.4-0.3C89.9,7,89.6,6.9,89.3,7z M113.5,7L113.5,7L113.5,7z M30.1,7.1L30.1,7.1L30.1,7.1z M113.8,7.1h0.1H113.8z
		 M29.9,7.2L29.9,7.2L29.9,7.2z M114,7.2h0.1H114z M114.2,7.2h0.1H114.2z M114.4,7.3h0.1H114.4z M114.6,7.4h0.1H114.6z M114.8,7.4
		h0.1H114.8z M115,7.5h0.1H115z M49.8,10.3c0.1,0.4,0.2,0.7,0.4,0.9c0.1,0,0.1,0.1,0.2,0.1c0.1-0.2,0.2-0.5,0.1-0.8
		C50.4,10.3,50.1,10.3,49.8,10.3z M51,10.5c0,0.3,0,0.6,0,0.9c0.6-0.1,1.2-0.2,1.9-0.3l0.1-0.1C52.6,10.7,51.5,10.5,51,10.5z
		 M94.4,10.5c-0.8,0.1-1.5,0.3-2.2,0.5l0.9,0.3c0.2,0.1,0.4,0.2,0.5,0.3c0.4-0.3,0.8-0.6,1-1l0-0.1L94.4,10.5z M110.7,11
		c0.4,0.4,7.4,2.1,8.2,2.1c0.1,0,0.1,0,0.1,0l0-0.1l-0.1,0C116.1,12.4,113.5,11.4,110.7,11z M107.9,11.5L107.9,11.5L107.9,11.5z
		 M94.3,12.2c-0.2,0.2-0.4,0.2-0.5,0.5c0,0.2,0.1,0.4,0.1,0.6c0.2-0.2,0.4-0.6,0.4-0.9C94.4,12.3,94.4,12.3,94.3,12.2z M80.1,14.1
		c-0.3,0.9-0.5,2,0,2.9c0.1,0.2,0.3,0.4,0.5,0.6c0.1-0.3,0.2-0.6,0.3-0.9c0.1-0.4,0.2-0.9,0.3-1.3c-0.2,0.3-0.4,0.8-0.7,1.1
		c-0.2-0.2-0.3-0.5-0.3-0.7C80.2,15.3,80.3,14.6,80.1,14.1z M82.9,15.1c-0.2,0.8-0.4,1.7-0.1,2.5c0.1,0.1,0.2,0.3,0.3,0.3
		c0.1,0,0.2,0,0.3,0c0.5-0.2,0.7-1.2,0.8-1.7c0-0.1,0-0.2,0.1-0.3c0-0.3,0.1-0.6,0.1-0.9c-0.4,0.8-0.7,1.8-1.2,2.6
		C83.1,17.3,83,17,83,16.7C82.9,16.2,83,15.5,82.9,15.1z M60.1,15.2c0.2,1,0.4,2.1,1,3c0.6-0.8,0.8-1.3,0.7-2.3L61.6,15
		c0,0.5,0,1.8-0.3,2.1c0,0,0,0-0.1,0c-0.2-0.1-0.2-0.1-0.3-0.3C60.7,16.5,60.5,15.5,60.1,15.2z M77.4,15.4c0,0.4-0.1,1.6,0.1,1.8
		l0.1-0.1C77.7,16.6,77.8,16,77.4,15.4C77.4,15.4,77.4,15.4,77.4,15.4z M34.9,15.9L34.9,15.9L34.9,15.9z M109.3,15.9h0.1H109.3z
		 M117,17L117,17L117,17z M117.3,17.1L117.3,17.1L117.3,17.1z M117.5,17.2L117.5,17.2L117.5,17.2z M117.6,17.3h0.1H117.6z
		 M118.2,17.5h0.1H118.2z M80.1,18.1c-0.3,0.8-0.6,1.7-0.2,2.6c0.2,0.5,0.7,0.9,1.2,1.1c0.1,0,0.1,0,0.2,0.1l0.2-0.1
		c0-0.4-0.7-1-0.9-1.4C80.3,19.6,80.3,18.9,80.1,18.1z M64.7,18.4c-0.3,1-0.6,1.9-1.2,2.8c-0.2,0.3-0.4,0.5-0.5,0.7l0.1,0
		c0.7-0.3,1.3-0.6,1.6-1.3C65.1,19.9,64.9,19.2,64.7,18.4z M83.5,20.5c-0.1,0.6-0.3,1.5,0.1,2c0.2,0.2,0.5,0.3,0.8,0.3
		c0.2,0,0.4,0,0.6,0l0.1-0.2c-0.3-0.3-0.7-0.6-0.9-0.9C83.8,21.4,83.7,20.8,83.5,20.5z M60.5,20.8c-0.2,0.7-0.4,1.3-0.8,1.9l0,0.1
		c0.6,0,1-0.2,1.4-0.6c0.4-0.5,0.5-0.9,0.7-1.4c-0.2,0.3-0.5,0.8-0.9,0.9c-0.2-0.1-0.2-0.2-0.3-0.4C60.5,21.1,60.5,21,60.5,20.8
		L60.5,20.8z M36.7,21.4L36.7,21.4L36.7,21.4z M85.4,21.3c0,0.5,0.1,0.9,0.1,1.4c0.5,0.3,1,0.4,1.6,0.4C86.5,22.6,85.9,22,85.4,21.3
		z M36.6,21.4L36.6,21.4L36.6,21.4z M109.2,21.6L109.2,21.6L109.2,21.6z M127.8,21.6L127.8,21.6L127.8,21.6z M16.1,22L16.1,22
		L16.1,22z M64.8,22.3c-0.1,0.3-0.2,0.7-0.4,1c-0.3,0.5-1.4,2.1-1.5,2.5l0.1,0c0.6-0.2,1.3-0.5,1.6-1.2C64.9,24.1,65,22.9,64.8,22.3
		L64.8,22.3z M79.9,22.4c-0.3,0.8-0.4,1.6-0.1,2.4c0.2,0.5,0.6,0.8,1,1c0.3,0.1,0.5,0.1,0.8,0.1l0.1-0.1
		C80.6,24.6,80.3,24.1,79.9,22.4L79.9,22.4z M123.1,23.1L123.1,23.1L123.1,23.1z M5.6,23.6c-0.3,0.1-0.6,0.2-0.9,0.2
		c-0.5,1.4-0.8,2.9-1.2,4.3c-1.2,4.5-2,9.8-2.2,14.5C1.1,48.7,1.5,54.9,1.9,61L3,80.8c1-1,1.5-2.2,1.9-3.6c0.9-3.8,0.7-8.8,0.7-12.8
		c0-3.1,0-6.2,0.1-9.3c0-2,0.2-4,0.2-5.9c0.2,1,0.1,2.8,0,3.9c0,2.3,0,4.6,0.1,6.9c0.2,3.7,0.7,7.5,1.1,11.2
		c0.3,2.8,0.7,5.6,0.7,8.4c0.8-0.9,1.6-1.8,2-2.9c1.2-3,0.9-9.2,0.9-12.6c0-2.4-0.1-4.8-0.1-7.2c0-2.2,0-4.4,0.2-6.6
		c0.1-0.6,0-1.2,0.1-1.8c0.2,1.1,0,2.3,0,3.4c0,2,0.1,4.1,0.2,6.1c0.1,2,0.2,4.1,0.4,6.1C12,68.1,12.5,72,13,75.9
		c0.1,0.8,0.1,1.6,0.2,2.4c0.6-0.6,1.1-1.3,1.5-2.1c1.5-3.2,1.2-8.9,1.1-12.4c-0.1-4.5-0.3-9,0-13.5c0-0.2,0-0.7,0.1-0.9
		c0.1,3,0.2,6,0.4,9c0.2,3,0.3,6,0.8,9c0.3,2,0.8,4,1.2,6c0.2,1,0.5,2.1,0.6,3.1c0.7-1.1,1.3-2.2,1.6-3.5c0.6-2.7,0.6-5.9,0.4-8.7
		c0-0.8-0.2-1.5-0.2-2.3c-0.3-4.3-0.4-8.6-0.4-12.9c0-1.6-0.1-3.2,0.1-4.8c0.1,1.5,0.1,3,0.1,4.5c0.1,2.8,0.3,5.6,0.6,8.5
		c0.1,1.3,0.1,2.7,0.4,4l1.1-0.4c-0.9-6.4-1.3-12.9-1.2-19.4c0.1-2.1,0.2-4.2,0.4-6.4c0.1-0.8,0.2-1.5,0.2-2.3c0-0.1,0-0.2-0.1-0.3
		l-0.1,0c-0.6,1.2-0.9,2.5-1.2,3.8c-1.9,8.4-1,17.5-0.6,26c0.2,3.8,0.7,8.7-0.8,12.3c-0.1-0.6-0.2-1.3-0.3-1.9
		c-1.1-5.8-1.6-11.6-1.9-17.5c-0.3-6-0.5-12,0.5-18c0.2-1.2,0.4-2.3,0.6-3.5c0.2-0.9,0.6-1.9,0.6-2.7c0-0.2,0-0.3-0.2-0.4
		c-0.4,0.3-0.5,0.9-0.6,1.3c-0.9,2.3-1.5,4.7-1.9,7.1c-0.7,4.3-1.1,8.7-1.2,13c-0.1,4,0,8.1,0.1,12.1c0.1,2.6,0.2,5.3,0.1,7.9
		c-0.1,1.1-0.4,3.9-1.2,4.7l-0.1,0c0-4.2-0.7-8.4-1.1-12.6c-0.9-9.8-1.3-21.7,1.1-31.3c0.4-1.8,1.1-3.4,1.7-5.1
		c-0.9,1.3-1.6,2.9-2.2,4.4C11,37.7,10,44.7,9.9,50.8c-0.1,2.9,0,5.8,0.1,8.7c0,1.3,0,2.5,0,3.8c0.1,3.4,0.4,8.9-0.2,12.1
		c-0.2,1-0.7,2-1.3,2.9c0.2-1.8,0-3.8-0.2-5.6c-0.2-2.2-0.4-4.4-0.5-6.6C6.9,55.3,6.1,43.2,9.1,32.7c0.4-1.4,0.9-2.8,1.5-4.2
		c0.3-0.8,0.8-1.7,1.1-2.5l-0.7-0.5c-0.5,0.8-0.9,1.7-1.3,2.6c-1.6,3.5-2.8,7.2-3.4,11.1c-0.4,2.1-0.6,4.2-0.7,6.3
		C4.8,52.2,4.8,59,4.8,65.8c0,4,0.5,10.4-1.4,14c0.4-3.4,0-7.1-0.2-10.5c-0.3-5.3-0.7-10.5-1-15.8c-0.2-3.7-0.3-7.5-0.1-11.2
		c0.3-4.5,1-9.2,2.2-13.6C4.5,27.8,5.7,23.9,5.6,23.6z M82.7,23.8c0,0.8-0.1,1.6,0.4,2.2c0.3,0.4,0.9,0.6,1.4,0.6c0.2,0,0.3,0,0.5,0
		c-0.9-0.6-1.5-1.2-2-2.2C83,24.2,82.9,23.9,82.7,23.8z M60.7,24.3c-0.1,0.9-0.4,1.7-0.9,2.4c0.5-0.1,0.9-0.3,1.3-0.6
		c0.6-0.6,0.7-1,0.9-1.9c-0.3,0.3-0.5,0.6-0.9,0.8C60.9,24.8,60.8,24.4,60.7,24.3z M85.8,24.7c0,0.8,0,1.7,0.6,2.3
		c0.4,0.4,1.1,0.6,1.7,0.6c-0.7-0.6-1.3-1.2-1.8-2C86.1,25.3,86,25,85.8,24.7z M58.8,25.7c-0.2,0.3-1.6,1.7-1.6,1.9
		c0.5,0,0.9-0.1,1.3-0.3C58.7,26.8,59,26.2,58.8,25.7z M64.8,26c-0.6,1.2-1.2,1.9-2.3,2.7c-0.3,0.6-0.5,1.2-0.9,1.7l0.1,0.1
		c1.2-0.4,2.4-1.4,3-2.6C64.9,27.4,65,26.7,64.8,26L64.8,26z M79.9,26.3c-0.1,0.9-0.1,1.6,0.5,2.4c0.6,0.9,1.7,1.6,2.8,1.9
		c-0.4-0.5-0.7-1-0.9-1.7c-0.8-0.5-1.5-1-2-1.9C80.2,26.8,80.1,26.6,79.9,26.3z M61.7,27.2c-0.3,1-0.8,1.8-1.4,2.6
		c-0.3,0.3-1.4,1.3-1.4,1.5l0.1,0c1-0.3,2.1-0.8,2.6-1.7C62,28.9,62,28,61.7,27.2L61.7,27.2z M82.9,27.4c-0.2,0.7-0.2,1.5,0.1,2.1
		c0.4,0.8,1.1,1.3,1.9,1.6c0.1,0,0.3,0.1,0.5,0.1c0.1-0.2,0.1-0.3,0.1-0.5c-1.2-0.8-1.4-1-2.1-2.3C83.2,28,83.1,27.7,82.9,27.4z
		 M91.7,32.2L91.7,32.2L91.7,32.2z M91.7,32.3L91.7,32.3L91.7,32.3z M58.9,32.4c0.2,0.9,0.5,1.8,1.3,2.3c0.3,0.2,0.7,0.3,1.1,0.3
		c0.3-0.1,0.6-0.3,0.8-0.5c0.3-0.4,0.4-0.9,0.4-1.4c0-0.2,0-0.4-0.1-0.5c-0.1,0.6-0.3,1.5-0.9,1.9c-0.2,0.1-0.4,0.1-0.6,0.1
		c-0.7-0.2-1.3-0.9-1.6-1.5C59.2,32.8,59.1,32.5,58.9,32.4z M82,32.5c-0.1,0.6-0.1,1.3,0.3,1.8c0.2,0.4,0.6,0.7,1.1,0.8
		c0.4,0.1,0.8,0,1.1-0.2c0.7-0.5,0.9-1.2,1.1-2l0-0.3l-0.1,0c-0.3,0.7-0.7,1.7-1.5,2c-0.3,0.1-0.6,0.1-0.9,0c-0.5-0.3-0.8-0.9-1-1.4
		C82.1,32.9,82.1,32.7,82,32.5z M122.7,32.4c0,0.8,0.1,1.7,0.1,2.5l0.3,3.8c0.2,2.8,0.2,5.6,0.2,8.5c0,2.8-0.3,5.6-0.6,8.4
		c-0.2,1.6-0.5,3.2-0.5,4.8c0.4,0.2,0.8,0.4,1.1,0.6c0.3-3.4,0.6-6.8,0.7-10.3c0-0.7,0-4.3,0.1-4.5c0,0.2,0.1,0.4,0.1,0.6l0,0.1
		c0.2,1.2,0.1,2.6,0.1,3.8c0,2.1,0,4.2-0.1,6.3l-0.1,3c0,0.4-0.1,0.8-0.1,1.2c0,0.2,0,0.4,0.1,0.5c0.1,0.1,0.1,0.1,0.3,0.1
		c0.2-0.3,0.2-2.7,0.2-3.2c0.4-7.3,0.9-15.7-0.9-22.9c-0.2-1-0.5-2.3-1.1-3.1L122.7,32.4z M111.3,34.7L111.3,34.7L111.3,34.7z
		 M111.5,34.8h0.1H111.5z M111.7,34.8h0.1H111.7z M111.7,34.9c1.3,0.5,3.6,1.5,4.9,1.5c0,0-0.1-0.1-0.1-0.1c-0.3-0.2-1-0.2-1.3-0.3
		c-1-0.3-2.4-1-3.4-1C111.8,34.9,111.8,34.9,111.7,34.9z M55,35.4L55,35.4L55,35.4z M24,35.5c-0.3,5.8,0,12.2,0.4,17.9
		c0.2,2,0.2,4.2,0.6,6.2l1.2-0.8l0.7-0.3c-0.8-3.9-1.4-7.9-1.7-11.9c-0.3-3.5-0.3-6.9-0.8-10.4C24.3,36,24.3,35.7,24,35.5
		C24.1,35.6,24,35.6,24,35.5z M61.2,35.9c0.2,0.9,0.7,1.8,1.5,2.3c0.4,0.3,0.9,0.3,1.4,0.2c0.7-0.2,1.1-0.6,1.5-1.2
		c0.1-0.2,0.2-0.4,0.3-0.6c0-0.1,0.1-0.3,0-0.4c-0.5,0.8-0.9,1.5-2,1.7c-0.5,0.1-0.9,0-1.3-0.3C61.9,37.1,61.7,36.4,61.2,35.9z
		 M83.1,36.1c-0.4,0.8-0.8,1.5-1.6,1.9c-0.5,0.2-1,0.1-1.4-0.1c-0.6-0.3-0.9-0.8-1.3-1.2c0,0.1,0.1,0.3,0.1,0.5
		c0.3,0.6,0.8,1.3,1.5,1.5c0.2,0.1,0.4,0.1,0.6,0.1c0.8-0.2,1.4-0.7,1.8-1.5C82.9,36.9,83.2,36.3,83.1,36.1z M78.7,36.4L78.7,36.4
		L78.7,36.4z M98.2,36.3c0.5,0.7,2.1,1.3,2.9,1.5c0.1,0,0.2,0,0.4,0c-0.4-0.2-0.8-0.3-1.2-0.4C99.7,37.1,98.7,36.4,98.2,36.3z
		 M120.5,36.4c-0.2,0.3-0.6,0.9-0.7,1.3c-0.2,1.3-0.1,2.8-0.1,4.2c0,1.8-0.2,3.6-0.3,5.3c-0.2,2.7-0.6,5.3-1,8
		c-0.2,1.1-0.4,2.2-0.5,3.4c0.1,0.2,0.3,0.2,0.4,0.3c0.4,0.1,0.8,0.3,1.2,0.4c1-6.6,1.2-13.6,1.1-20.2
		C120.6,38.4,120.7,36.9,120.5,36.4z M67.7,38.9c-0.5,0.7-1.1,1.2-2,1.3c-0.6,0.1-1-0.1-1.5-0.4c-0.2-0.2-0.5-0.4-0.7-0.6
		c0,0.1,0,0.2,0.1,0.3c0.5,0.6,1,1.2,1.9,1.3c0.6,0.1,1.1-0.2,1.6-0.5c0.3-0.3,0.7-0.8,0.7-1.2C67.7,39,67.7,38.9,67.7,38.9z
		 M74.3,39.9c0.2,0.8,0.6,1.5,1.2,1.9c0.4,0.3,0.8,0.4,1.3,0.3c0.5-0.1,0.8-0.4,1.1-0.7l0.1-0.2c-0.4-0.2-1.6,1.1-3.1-0.4
		C74.7,40.6,74.5,40.3,74.3,39.9z M70.2,40.1L70.2,40.1L70.2,40.1z M70.1,40.2c-0.4,0.7-1,1.2-1.8,1.4c-0.7,0.1-1.7-0.4-1.7-0.3
		c0.1,0.1,0.2,0.3,0.3,0.4c0.4,0.3,0.7,0.6,1.3,0.5c0.6-0.1,1.1-0.4,1.5-0.9C69.8,41,70.1,40.6,70.1,40.2
		C70.1,40.3,70.1,40.3,70.1,40.2z M27.8,41.8c0.2,2.1,0.1,4.3,0.2,6.4c0.2,3.1,0.6,6.2,1.1,9.3c0.2-0.3,0.5-0.7,0.8-1
		c0.3-0.3,0.6-0.5,0.9-0.8c-1-3.4-1.6-6.7-1.9-10.2c-0.1-1.1-0.3-2.2-0.3-3.4C28.4,42,28.1,41.9,27.8,41.8z M116.6,41.9
		c-0.3,0.2-0.6,0.4-0.9,0.6c-0.2,3.9-0.8,7.6-1.5,11.4c-0.2,1.1-0.4,2.3-0.7,3.4c0.2-0.3,0.3-0.6,0.6-0.8c-0.1,0.3-0.4,0.8-0.4,1
		c0.1,0,0.1,0,0.1-0.1c0.1-0.2,0.3-0.5,0.5-0.6l0.1,0l0.1-0.1l0.1,0c-0.1,0.3-0.3,0.5-0.3,0.8l0.1,0.1c0.2-0.1,0.8-0.9,0.8-1.1
		C116,54.8,116.9,43.4,116.6,41.9L116.6,41.9z M74.3,44.4c0.2,0.6,0.5,1,1,1.3c0.2,0.1,0.3,0.1,0.5,0.2c0.6-0.1,0.9-0.2,1.4-0.7
		l0.1-0.2c-0.2,0-0.4,0.1-0.6,0.2c-0.9,0.4-1.6-0.1-2.3-0.7C74.3,44.4,74.3,44.4,74.3,44.4z M89,44.6L89,44.6L89,44.6z M55.2,45
		L55.2,45L55.2,45z M89.1,45L89.1,45L89.1,45z M53.7,47.8L53.7,47.8L53.7,47.8z M53.7,47.9L53.7,47.9L53.7,47.9z M53.5,48.3
		L53.5,48.3L53.5,48.3z M87.7,52.1L87.7,52.1L87.7,52.1z M52.5,52.1c-0.7,0.6-1.5,1.2-2.4,1.2c-0.6,0-0.9-0.3-1.3-0.6
		c-0.4,1-0.8,1.8-1.8,2.3c-0.8,0.3-1.8,0.2-2.6,0c-0.3,1-0.6,2-1.5,2.5c-0.7,0.4-1.4,0.4-2.2,0.2c-0.2,0.9-0.6,1.6-1.2,2.3l1.1,0
		c1.4,0,2.9,0.1,4.3,0c0.4-0.3,0.8-0.5,1.1-0.8c0.8-0.7,1.6-1.4,2.7-1.2c1.1,0.2,1.7,0.3,2.7-0.3c0.8-0.5,1.5-1.3,2.2-1.9
		c0.1-0.7,0.2-1.4,0.5-2.1C53.6,53.3,52.7,52.2,52.5,52.1z M92,52.1c-0.4,0.5-0.9,1-1.5,1.1c-0.1,0,0,0-0.1,0.1
		c0.2,0.7,0.4,1.4,0.4,2.1c0.9,0.9,1.5,1.9,2.6,2.7c0.6,0,0.9,0.1,1.3,0.4c0.5-0.3,1.1-0.6,1.6-0.4c0.3,0.1,0.5,0.3,0.8,0.5
		c0.4,0,1.1,0,1.5,0.4c0.3,0.3,0.5,0.9,0.7,1.2c1.3,0,2.6-0.3,3.8,0c0.2-0.1,1-0.6,1.5-0.7c-0.3-0.6-0.6-1.2-0.8-1.8
		c-0.9,0.1-1.7,0-2.4-0.6c-0.6-0.5-1-1.2-1.3-1.9c-1,0.2-1.9,0.2-2.8-0.4c-0.8-0.5-1.3-1.3-1.7-2.1c-0.4,0.3-0.7,0.6-1.3,0.5
		C93.6,53.2,92.7,52.6,92,52.1z M87.7,52.3L87.7,52.3L87.7,52.3z M64.7,52.6L64.7,52.6L64.7,52.6z M56.4,54L56.4,54L56.4,54z
		 M56.4,54.1L56.4,54.1L56.4,54.1z M56.3,54.3L56.3,54.3L56.3,54.3z M56.2,54.5L56.2,54.5L56.2,54.5z M57.5,54.5L57.5,54.5
		L57.5,54.5z M57.4,54.6L57.4,54.6L57.4,54.6z M57.3,54.7L57.3,54.7L57.3,54.7z M79.2,54.8c-0.9,1.2-1.2,2.9-1.3,4.4
		c0,0.3-0.1,0.7-0.1,1c0,0,0,0.1,0,0.1c0.2-0.1,0.3,0,0.4-0.2c0-1.5,0.3-2.9,0.8-4.4C79,55.4,79.2,55.1,79.2,54.8z M57.3,54.9
		L57.3,54.9L57.3,54.9z M80.6,55.6c-0.9,1.4-1.2,3-1.2,4.6c1.1,0,8.3,0.1,8.7,0c0.1,0,0.1-0.1,0.1-0.1l0-0.2
		c-0.7-0.7-1.3-1.4-2.2-1.8c-0.4,0.4-0.7,0.7-1.3,0.7c-0.4,0-0.7-0.2-1-0.5c-0.3-0.3-0.5-0.7-0.6-1.2c-0.3,0.4-0.7,0.9-1.2,1
		c-0.2,0-0.4,0-0.6-0.2C80.8,57.4,80.8,56.4,80.6,55.6z M89,55.6c-0.4,0.3-0.7,0.8-0.8,1.3c0,0.4,0,0.8,0,1.2
		c0.1-0.2,0.2-0.5,0.4-0.6c0.2,0.3,0,0.7,0.2,0.9c0.1-0.1,0.2-0.3,0.3-0.4l0.1,0c0,0.3,0,0.5,0.1,0.8l0.1,0l0.2-0.2
		c0.2,0.2,0,0.5,0.3,0.7c0.2-0.1,0.1-0.3,0.3-0.5l0.2,0.1c0.1,0.2,0.1,0.4,0.3,0.6c0.4,0,0.6-0.3,0.9-0.1c-0.1,0.2-0.2,0.3-0.1,0.5
		c0.1,0.4,0.3,0.6,0.4,1l0.1,0.1c0.1-0.1,0.2-0.4,0.2-0.6c0-0.4,0-0.7,0-1.1c-0.2-0.1-0.5-0.3-0.7-0.5c-0.2-0.2-0.3-0.5-0.5-0.8
		c-0.2-0.2-0.4-0.1-0.6-0.4l0-0.1c0-0.3,0-0.5-0.3-0.7c-0.2-0.2-0.5-0.3-0.7-0.5C89.4,56.3,89.3,55.8,89,55.6z M63.5,55.7
		c0,0.7-0.1,1.7-0.7,2.2c-0.2,0.2-0.5,0.3-0.7,0.2c-0.5-0.1-0.9-0.5-1.2-0.8c-0.2,0.6-0.4,1.2-1,1.5c-0.3,0.2-0.7,0.2-1.1,0.1
		c-0.4-0.1-0.8-0.4-1.1-0.7c-0.3,0.3-1.7,1.8-1.7,2l0,0c2.9,0,5.8,0,8.7,0c0.1-0.2,0.3-0.4,0.4-0.5C65,58.5,64.6,56.4,63.5,55.7
		C63.5,55.7,63.5,55.7,63.5,55.7z M87.5,55.9c0.1,0.3,0.1,0.6,0.2,1l0.1,0l0.1-0.1l0.2-0.3C87.9,56.2,87.7,56.1,87.5,55.9z
		 M55.9,56.1c-0.2,0.2-0.4,0.3-0.7,0.3c-0.1,0-0.3,0-0.4-0.1l-0.1,0.1c0,0.2,0,0.4,0,0.6c-0.2-0.2-0.4-0.5-0.5-0.7
		c0,0.3,0.2,1.1,0.1,1.4c-0.2,0-0.3-0.3-0.5-0.2c0,0.2,0,0.3,0,0.4C53.5,58,53.2,58,53,58.1c-0.4,0.2-0.8,0.6-1.2,0.8l1.1,0
		c0.4,0,1.7,0.3,1.9,0.2l0-0.2c0.2,0,0.2,0.1,0.4,0c0.2-0.4,0.2-1,0.5-1.3c0.1,0.1,0.1,0.2,0.2,0.4l0.1-0.1l0-0.3l0.1,0l0.1,0.2
		c0.1-0.1,0.2-0.3,0.2-0.4c0.1-0.3,0.1-0.5,0.1-0.8l-0.1,0l-0.3,0.3l-0.1,0C55.9,56.6,55.9,56.4,55.9,56.1z M115.3,57
		c-0.2,0.2-0.3,0.4-0.4,0.7l0.1,0.2c0.2-0.2,0.4-0.5,0.4-0.8C115.3,57,115.3,57,115.3,57z M114.4,57c-0.1,0.2-0.3,0.3-0.3,0.5
		l0.1,0.1C114.3,57.4,114.4,57.3,114.4,57L114.4,57z M75.6,57.3c-0.4,0.9-1.4,3.2-2.4,3.6c-0.7,0.3-1.8-0.3-2.5,0.3l0.1,0
		c0.8,0,2.3,0.3,2.9-0.3c0.6-0.6,1.9-2.7,1.9-3.5C75.6,57.4,75.6,57.4,75.6,57.3z M66.4,58.1L66.4,58.1L66.4,58.1z M111.2,58.5
		c-0.2,0-0.4,0-0.5,0.1c0.1,0.4,0.3,0.6,0.2,1l-0.1,0.1l0.1,0l-0.1,0c-0.1-0.4-0.2-0.8-0.5-1.2c-0.6,0.2-1.1,0.4-1.7,0.6
		c0.2,0.2,0.5,0.3,0.5,0.7c0,0.1,0,0.2,0,0.2l-0.1,0.1c-0.1-0.3-0.2-0.6-0.4-0.8c-0.5-0.1-1.6,0.4-2.1,0.7c-0.1,0.1-0.2,0.1-0.3,0.2
		l0,0.1c0.1,0.1,0.1,0.2,0.1,0.4l-0.1,0c-0.1-0.2-0.1-0.4-0.3-0.5c-0.2,0-0.5,0.1-0.7,0.2c0.1,0.1,0.2,0.3,0.2,0.5l0,0l0,0
		c-0.1-0.2-0.1-0.3-0.3-0.4c-0.3-0.1-0.8,0.1-1.1,0.2c0.1,0.8,0.2,1.5,0.3,2.3c0.5,0.1,0.9,0.2,1.4,0.2c0.4,0,0.5,0.5,0.9,0.3
		c0-0.1,0.1-0.3,0.2-0.3c0,0,0,0,0,0.1c0.1,0.2,0.1,0.3,0.3,0.4c0.2,0,0.2,0.1,0.4,0c0.1-0.1,0.2-0.3,0.3-0.4l0,0
		c0,0.2-0.1,0.3,0.1,0.6c0.2,0.1,0.2,0.1,0.4,0.1c0.2-0.2,0.3-0.4,0.3-0.7c0,0,0,0,0,0c0,0.3,0,0.6,0.1,0.9c0.2,0,0.2,0.1,0.4,0
		l0.2-0.3l0.1,0c0,0.2,0,0.4,0.2,0.5c0.1,0,0.2,0,0.3-0.1c0.1-0.1,0.1-0.2,0.1-0.4l0.1-0.1c0,0.2,0,0.4,0.2,0.5c0.1,0,0.1,0,0.2,0
		c0.1-0.1,0.1-0.4,0.3-0.5c0,0.3,0,0.5,0.2,0.6c0.1,0,0.2,0,0.3,0c0.2-0.1,0.2-0.4,0.3-0.5c0,0.2,0.1,0.3,0.1,0.5
		c0.2,0.1,0.2,0.1,0.4,0c0.2-0.1,0.4-0.3,0.5-0.4c0.2,0.2,0,0.3,0.3,0.4c0.1,0,0.2-0.1,0.3-0.1c0.1-0.1,0.3,0,0.5,0
		c0.1-0.1,0.2-0.1,0.2-0.3c0-0.2,0.1-0.3,0-0.5l-0.2-0.1c-0.4,0-0.8,0.1-1.1,0.1c-0.5,0-1.3-0.3-1.7-0.1l-0.1,0.2l-0.1,0l0-0.1
		c-1.9-0.5-3.9-0.3-5.8-0.7l0-0.2l-0.1,0.1l0,0c1-0.4,3.7,0.2,5,0c0.2,0.1,0.2,0.2,0.5,0.2l0.1-0.1c0-0.1,0.1-0.1,0.2-0.1
		c0,0,0,0,0.1,0c0.2,0.1,0.2,0.2,0.4,0.2c0.1-0.1,0.2-0.2,0.3-0.3c0,0,0,0,0,0c0.1,0.1,0.1,0.1,0.2,0.2l0.2,0
		c0.1-0.1,0.2-0.2,0.3-0.3l0,0c0,0.2,0,0.3,0.2,0.4c0.2,0,0.2,0,0.3-0.2c0.1-0.1,0.1-0.2,0.2-0.2l0.1,0l0,0.3
		c0.1,0.1,0.2,0.1,0.3,0.1c0.1,0,0.2-0.1,0.3-0.2c0,0,0,0.1,0,0.1c0,0,0,0,0,0.1c0.1,0,0.3,0,0.4,0c0.1-0.2,0-0.5-0.1-0.7
		c0.2-0.7,0.7-2.1,0.3-2.8c-0.1-0.2-0.5-0.3-0.7-0.3c-0.1,0-0.1,0-0.2,0l-0.1,0.1c0.1,0.2,0.2,0.4,0.1,0.7c0,0,0,0.1-0.1,0.1
		c-0.1-0.3-0.2-0.8-0.5-0.9c-0.1,0-0.2,0-0.3-0.1c0,0.3,0.1,0.6,0.1,1l-0.1,0.1c-0.1-0.3,0-0.9-0.3-1c-0.2-0.1-0.3-0.1-0.5,0
		l-0.1,0.1c0.1,0.3,0.3,0.9,0.1,1.2C111.6,59.4,111.7,58.8,111.2,58.5L111.2,58.5z M114.3,58.8c0,1-0.1,1.8-0.2,2.7
		c1.8,0.1,3.7,0.1,5.5,0.1c1.2,0,2.5-0.1,3.7,0.1l0.1,0C122.9,61.4,115.3,59.1,114.3,58.8z M47.9,59.2c-0.2,0.2-0.3,0.3-0.3,0.6
		l0.1,0.1c0.2,0,0.4-0.2,0.5-0.3c0.1-0.1,0.3-0.1,0.4-0.2l0.1-0.1l-0.1,0.1l-0.1-0.2l0,0C48.3,59.2,48.1,59.2,47.9,59.2z M93.3,59.4
		c-0.3,0.2-0.5,0.4-0.5,0.8c0,0.2,0.1,0.5,0.3,0.6c0.1,0.1,0.4,0.3,0.6,0.3c0.2,0,0.3,0,0.4-0.2c0-0.1,0-0.2,0-0.4
		c-0.1-0.2-0.1-0.3-0.1-0.5l-0.1-0.1l-0.1,0.1l0,0.2l-0.1,0.1l-0.2-0.1c0-0.2,0.1-0.3,0.3-0.5c0,0,0.1-0.1,0.1-0.1
		c-0.1-0.2-0.2-0.2-0.4-0.3C93.4,59.4,93.4,59.4,93.3,59.4z M95.4,59.6C95.1,59.8,95,60,95,60.4c0,0.3,0,0.6,0,0.9
		c0.4,0.1,0.9,0.2,1.3,0c0.1-0.1,0.2-0.2,0.2-0.4c0-0.1-0.1-0.3-0.1-0.4l-0.1-0.3l-0.1-0.1c-0.3,0.2-0.5,0.7-0.8,1
		c0.1-0.2,0.1-0.4,0.2-0.6c0.1-0.3,0.5-0.6,0.4-0.9C95.7,59.6,95.6,59.6,95.4,59.6z M48.6,59.6c-0.2,0.1-0.5,0.3-0.6,0.5l0.1,0.1
		c0.1,0,0.3,0,0.4,0.1c0.2,0,0.4,0.1,0.6-0.1c0-0.2,0.1-0.3,0-0.4C48.9,59.7,48.8,59.7,48.6,59.6z M27.7,59.8
		c-1.1,0.2-2.1,0.8-3.2,1.1c-0.8,0.3-1.7,0.4-2.6,0.6c0.6,0.1,1.3,0.1,1.9,0.2c1.6,0,3.4,0.1,5-0.2c0.1-0.3,0.1-0.5,0.2-0.8
		c-0.3,0-0.5-0.1-0.7-0.2c0-0.1-0.1-0.1,0-0.3c0.1-0.1,0.2-0.3,0.3-0.4l-0.1-0.1C28.2,59.8,27.9,59.8,27.7,59.8z M97.1,59.8
		c0.1,0.5,0.2,1.1,0.2,1.6l0.9-0.1c0-0.3-0.1-0.7-0.2-1C97.8,60,97.5,59.9,97.1,59.8C97.1,59.8,97.1,59.8,97.1,59.8z M46.8,59.9
		c-0.3,0.1-0.5,0.3-0.7,0.5l0,0.1c0.1,0.1,0.3,0.1,0.4,0.1c0.2,0,0.4,0.1,0.6-0.1C47.2,60.4,47,60.2,46.8,59.9z M50.1,60.3
		L50.1,60.3L50.1,60.3z M49.1,60.5c-0.3,0-0.7,0.1-1,0.2l0,0.1c0.1,0.1,0.2,0.2,0.4,0.2c0.3,0,0.7,0,1,0
		C49.4,60.8,49.3,60.6,49.1,60.5z M32.9,60.6c0,0.2,0,0.4,0.1,0.5c0.1,0.1,0.2,0.1,0.3,0.1C33.3,61,33.2,60.8,32.9,60.6
		C32.9,60.6,32.9,60.6,32.9,60.6z M45.6,60.9c0.5,0.4,1.1,0.4,1.7,0.4c-0.2-0.3-0.3-0.3-0.7-0.4C46.4,60.8,46,60.8,45.6,60.9z
		 M67.8,61.1l-0.2,0.1c0.2,0.2,0.9,0.1,1.2,0.1l0.1-0.1c-0.2-0.2-0.5-0.2-0.7-0.2C68.1,61.1,68,61.1,67.8,61.1z M49.5,61.3
		c-0.3,0.1-1,0.1-1.2,0.4l0,0.1l0.1,0c0.3,0,1,0,1.3-0.2C49.7,61.4,49.6,61.4,49.5,61.3z M47.3,61.5L47.3,61.5
		c-0.4,0.1-1.2,0.1-1.4,0.3l0.1,0.1c0.4,0.1,1,0.2,1.4,0c0.1,0,0.1,0,0.1-0.1C47.4,61.6,47.4,61.6,47.3,61.5z M103.7,61.5
		c-1.4,0.1-2.8,0.1-4.1,0c0.1,0.5,0.2,1,0.3,1.4c0.1,0.1,0.2,0.1,0.3,0.1c0.6,0,3.4,0.2,3.7-0.2c0.1-0.4,0.2-0.8,0-1.2
		c0,0,0-0.1-0.1-0.1C103.8,61.5,103.7,61.5,103.7,61.5z M56.5,61.6c0.2,0.5,0.3,1,0.6,1.5c0.3,0.1,1.7-0.1,2.1-0.1
		c3.2,0,6.4,0,9.6,0.1c0-0.5,0-1,0-1.6c-2.5,0.1-4.9,0.1-7.4,0.1C59.8,61.6,58.1,61.7,56.5,61.6z M70.6,61.6c-0.2,0-0.4,0-0.6,0.2
		c-0.1,0.4-0.2,0.7,0,1.1c0.1,0.2,0.2,0.3,0.3,0.4c0.2,0,0.4,0,0.6-0.1c0.1,0,0.1-0.1,0.1-0.2c0-0.1,0.1-0.1,0.1-0.2
		c0.3-0.4,0.7-0.8,1.1-1.1C71.8,61.6,71,61.5,70.6,61.6z M74.5,61.6c-0.7,0-1.4,0.1-2.1,0.1c0.1,0.3,0.3,0,0.2,0.6l0.1,0.1
		c0.2,0,0.3,0,0.4,0.2c-0.1,0.4-0.6,0.8-0.8,1c0,0-0.1,0-0.1,0.1c-0.6,0-1.5-0.2-2,0l0,0.1c0.7,0.3,1.5,0.1,2.3,0.2
		c0.2-0.2,0.5-0.5,0.7-0.7c0.8-0.1,1.7,0,2.5,0c2.1,0,4.2,0.1,6.3,0c1.9,0,3.9-0.1,5.8,0c0.1-0.5,0.1-1,0.3-1.5
		C83.4,61.5,78.9,61.6,74.5,61.6z M49.7,61.7c-0.4,0.2-1.3,0.2-1.6,0.5c0,0.1,0,0.1,0.1,0.2c0.1,0,0,0,0.1,0.1c0.4,0,1,0.1,1.4-0.2
		c0.1-0.1,0.1-0.4,0.2-0.5C49.7,61.7,49.7,61.7,49.7,61.7z M93.1,61.8c-0.3,0.1-0.4,0.2-0.5,0.5c-0.1,0.4-0.1,0.8-0.2,1.2
		c0.3-0.3,0.9-1.2,1.3-1.2c0,0.2-0.2,0.4-0.3,0.6c-0.2,0.2-0.6,0.4-0.6,0.6c0.1,0.2,0.3,0.3,0.5,0.3c0.2,0,0.3,0,0.4,0
		c0.2-0.2,0.3-0.4,0.3-0.7c0-0.4,0-0.8-0.1-1.2C93.6,61.7,93.4,61.8,93.1,61.8z M97.3,61.8c0,0.6,0,1.3,0,1.9
		c0.4-0.6,0.7-1.1,1.2-1.6c-0.1,0.3-0.2,0.5-0.4,0.8c-0.1,0.2-0.2,0.3-0.2,0.5c0.1,0.1,0.2,0.2,0.3,0.2c0.2-0.1,0.3-0.1,0.4-0.3
		c0.1-0.3,0.1-0.8,0-1c-0.1-0.2-0.1-0.3-0.3-0.4C97.9,61.8,97.6,61.9,97.3,61.8z M47.1,62.1c-0.5,0.1-0.9,0.1-1.3,0.2
		c-0.1,0.1-0.1,0.2,0,0.3c0,0.1,0.1,0.1,0.1,0.2c0.5,0.1,0.9,0.2,1.3-0.1c0.1-0.1,0.1-0.2,0.1-0.4l-0.1-0.1L47.1,62.1z M49.6,62.6
		c-0.5,0.1-1,0.1-1.5,0.2c-0.1,0.2,0,0.3,0.1,0.5c0.5,0,1.1,0.1,1.5-0.2c0.1-0.2,0.1-0.3,0-0.5C49.7,62.6,49.7,62.6,49.6,62.6z
		 M92,62.5c-0.1,0.2-0.1,0.4-0.1,0.6c0.1,0,0.1,0,0.2,0C92.1,62.9,92.2,62.8,92,62.5L92,62.5z M72,62.7c-0.2,0.1-0.3,0.2-0.3,0.4
		l0.2,0.1c0.2-0.1,0.3-0.2,0.3-0.5L72,62.7z M21.6,62.7c0.2,2,0.6,4,1,5.9c0.4,1.7,0.9,3.5,1.1,5.2c2.2-2.7,2.2-6.1,2.2-9.5
		c0.4,0.6,0.8,1,1.4,1.3c0.3,0.1,0.8,0.2,1.1-0.1c0.1,0,0.1,0,0.1-0.1l0-0.1c-0.3-0.1-0.7-0.1-1.1-0.2C26.8,65,26,64.3,25.3,64
		c0,2.6,0.2,5.6-1.2,7.9c-0.7-3-1.2-6.1-1.7-9.1L21.6,62.7z M47.1,62.9L47.1,62.9c-0.5,0.2-1.1,0.1-1.4,0.3c0,0.2,0.1,0.2,0.2,0.3
		c0.3,0,1,0.2,1.2,0c0.1-0.1,0.1-0.1,0.1-0.2c0-0.1,0-0.2,0-0.3L47.1,62.9z M122.8,62.9l-0.9,0.2c-0.3,2-0.7,4-1.1,6.1
		c-0.2,1-0.3,2.1-0.5,3.1c-0.5-1.5-0.9-3-1.1-4.5c-0.1-0.8,0.1-3-0.2-3.6l-0.1,0c-0.1,0.1-0.2,0.2-0.2,0.4c0,0.5-0.1,1.4-0.1,1.9
		c0.1,3.4,0.4,4.9,2.1,7.9c0.2-1.8,0.5-3.6,0.9-5.4c0.2-1.2,0.4-2.4,0.9-3.6c0.2-0.5,0.6-1.9,0.4-2.4L122.8,62.9z M67.5,63.4
		l-2.5,0.2c0.7,0.1,1.4,0.2,2,0.4c0.5,0.1,1.1,0.3,1.6,0c0.1-0.1,0.1-0.1,0.2-0.2c-0.1-0.2-0.2-0.3-0.4-0.3
		C68.2,63.3,67.8,63.3,67.5,63.4z M51.9,63.4c-0.3,0.1-0.7,0.2-1,0.4l0,0.1l0.2,0.1c0.4,0,0.6,0,1-0.3l0.1-0.1
		C52.1,63.4,52.1,63.4,51.9,63.4z M49.4,63.5c-0.3,0-0.7,0-1,0.2c0.1,0.2,0.1,0.2,0.3,0.3c0,0,0,0,0.1,0c0.3,0,0.7,0.1,1-0.1
		c0.1,0,0.1-0.1,0.1-0.1l0-0.2C49.6,63.4,49.6,63.5,49.4,63.5z M92.5,63.6c-0.1,0.3-0.3,0.8-0.2,1.1c0.1,0.2,0.3,0.3,0.5,0.4
		c0.1,0,0.2,0,0.3,0c0,0,0,0,0.1,0c0.2-0.2,0.4-0.4,0.6-0.7c-0.5-0.1-0.9-0.1-1.1-0.5C92.6,63.7,92.5,63.6,92.5,63.6z M45.9,63.8
		c0,0.1,0,0.2,0.2,0.2c0.4,0.2,0.9,0.1,1.3,0l-0.1-0.2C46.8,63.7,46.3,63.8,45.9,63.8z M97.2,63.7c-0.1,0.3-0.4,1-0.2,1.3
		c0.1,0.1,0.1,0.1,0.2,0.1c0.3,0,0.4-0.1,0.7-0.2c0.2-0.3,0.4-0.5,0.5-0.8C98,64.1,97.5,64,97.2,63.7z M94.8,64
		c-0.1,0.4-0.4,1-0.2,1.4c0.2,0.2,0.3,0.2,0.6,0.2c0.2,0,0.3,0,0.5-0.1c0.2-0.2,0.5-0.5,0.4-0.8c0-0.1-0.1-0.2-0.2-0.2
		C95.6,64.3,95.2,64.2,94.8,64z M51.2,64.1L51,64.2c0.1,0.4,0.4,0.7,0.6,1.1l0.2,0.1c0.3-0.4,0.3-0.8,0.3-1.3L51.2,64.1z M47.1,64.2
		c-0.3,0-0.7,0-0.9,0.2c0,0.2,0.2,0.3,0.3,0.5c0.2,0.2,0.2,0.4,0.3,0.6l0.2,0.1c0.1,0,0.1,0,0.2-0.1c0.2-0.4,0.1-0.9,0.1-1.3
		C47.2,64.2,47.2,64.2,47.1,64.2z M49.5,64.2c-0.3,0-0.6,0-0.8,0.1c-0.1,0.3,0,0.5,0.2,0.8c0.1,0.3,0.3,0.5,0.4,0.8
		c0.2-0.1,0.3-0.1,0.4-0.3c0.1-0.4,0.1-0.9,0.1-1.3l-0.1-0.1L49.5,64.2z M111.6,64.2L111.6,64.2L111.6,64.2z M67,64.3
		c0.3,0.3,0.5,0.7,0.9,0.8c0.2,0,0.3-0.1,0.5-0.2c0.1-0.2,0.2-0.3,0.2-0.5C68.2,64.2,67.5,64.3,67,64.3z M39.2,64.4
		c-1.1,0.3-1.6,1-2.8,1.1c3.2,2.1,6.4,5,10.6,4.2c0.8-0.2,1.6-0.5,2.4-0.9c1-0.6,1.8-1.3,2.4-2.3c-0.4-0.1-0.7-0.1-1.1-0.3
		c-0.3,0.4-0.6,0.7-1.1,0.7c-0.3,0.1-0.6-0.1-0.8-0.3c-0.2-0.2-0.4-0.4-0.6-0.4c-0.6,0.2-0.8,0.9-1.5,0.5c-0.5-0.3-0.8-0.9-1.1-1.5
		c-0.5-0.2-0.8-0.3-1.1-0.7l-0.1-0.1C42.6,64.4,40.9,64.3,39.2,64.4z M117.6,64.8c-0.5,0.6-1.3,0.8-2.1,0.9c-0.4,0.1-1.4,0-1.7,0.2
		l0,0.1c0.1,0,0.2,0,0.3,0c1,0.2,2.5-0.1,3.4-0.7c0.1-0.1,0.1-0.1,0.2-0.2C117.7,65,117.7,64.9,117.6,64.8
		C117.6,64.8,117.6,64.8,117.6,64.8z M109.3,65.5c0.4,0.3,1.3,0.8,1.8,0.8l0.1-0.1c0,0,0,0,0,0c-0.1-0.2-0.1-0.3-0.1-0.5
		C110.6,65.6,109.8,65.5,109.3,65.5z M112.4,65.6L112.4,65.6L112.4,65.6z M108.8,65.6l-0.1,0.2c0.3,0.4,1.3,0.9,1.8,1l0.2-0.2
		c-0.1-0.3-0.4-0.4-0.7-0.6C109.6,65.9,109.2,65.7,108.8,65.6z M82,65.8L82,65.8L82,65.8z M108.4,66.1c-0.1,0.1-0.2,0.3-0.2,0.4
		c0.5,0.3,1.1,0.7,1.7,0.9l0.2-0.2c-0.2-0.5-0.8-0.7-1.3-0.9C108.6,66.2,108.5,66.1,108.4,66.1z M107.9,66.6l-0.2,0.3
		c0,0.2,0.1,0.2,0.2,0.4c0.3,0.2,0.9,0.4,1.3,0.5l0.2-0.1c0-0.2-0.2-0.3-0.4-0.4C108.6,67,108.3,66.8,107.9,66.6z M69.1,69.5
		c-1.5,4.8-2.9,9-5,13.6c-1,2.2-2.1,4.3-3.5,6.2c0.3,1.2,0.7,2.9,1.8,3.6c0.8,0.4,2.1,0.3,2.9,0c0.4-0.2,0.9-0.5,1.1-0.9
		c0.4-0.9,0.8-2.9,1-4c1-4.3,1.9-8.6,3-12.9c0.2-1,0.4-1.6,0-2.6c-0.6,2-1.1,4-1.7,6c-0.9,3-1.9,6.1-3.1,9c-0.5,1.2-0.9,2.5-1.6,3.5
		c-0.3,0.5-0.7,0.9-1.2,1.2c0.2-1.2,0.6-2.4,1-3.5l1.6-5c1.4-4.5,2.7-8.9,4-13.5C69.3,70,69.2,69.7,69.1,69.5z M75.5,69.4
		c-0.1,0.3-0.2,0.6-0.4,0.9c1.1,4.4,2.4,8.8,3.8,13.2c0.8,2.4,1.7,4.8,2.5,7.3c0.1,0.4,0.2,0.8,0.2,1.3l-0.1,0.1
		c-0.2,0-0.4-0.1-0.5-0.3c-0.6-0.7-1.1-1.8-1.4-2.6c-2.5-5.4-3.9-11-5.4-16.8l-0.3,1.1l0.4,1.6c1,4.6,2.1,9.2,3.2,13.7
		c0.3,1.1,0.5,2.2,0.8,3.2c0.7,0.7,1.6,1.1,2.6,1c0.8,0,1.6-0.3,2.1-0.9c0.7-0.8,0.9-2,1.1-3c-2.9-4.3-5.1-9.5-6.8-14.4
		c-0.4-1.3-0.8-2.5-1.1-3.8C75.9,70.6,75.8,69.9,75.5,69.4z M71.1,77.9c-0.6,2.9-1.1,5.9-1.8,8.8c-0.3,1.1-0.5,2.2-1,3.3
		c-0.3,0.7-0.7,1.3-1.2,1.9c0.2,1,0.5,2.1,1.4,2.6c0.5,0.3,1.1,0.4,1.6,0.3c0.6-0.2,1.1-0.6,1.5-1.2c0.3-0.5,0.4-1,0.6-1.5
		c0.4,1,0.7,2.2,1.8,2.6c0.5,0.2,1.1,0.2,1.6,0c0.6-0.2,1-0.7,1.3-1.3c0.2-0.4,0.2-0.9,0.2-1.4c-0.4-0.7-0.8-1.4-1.1-2.2
		c-0.8-2-1.2-4.2-1.6-6.3c-0.4-1.9-0.8-3.7-1.2-5.6c-0.5,1.6-0.2,2.5,0.1,4.1l1.1,6.5c0.3,1.5,0.6,3.1,0.7,4.6c0,0.4,0,0.7-0.1,1.1
		L75,94.2c-0.3-0.1-0.5-0.5-0.6-0.7c-1.1-2-1.8-8.3-2.1-10.7c-0.3,2.1-0.6,4.1-0.9,6.1c-0.2,1.2-0.3,2.4-0.7,3.5
		c-0.2,0.6-0.5,1.4-1,1.8c-0.1,0.1-0.1,0.1-0.2,0.1c-0.1-0.2-0.1-0.4-0.1-0.6c0-1,0.2-2,0.4-2.9l1.1-7c0.2-1.4,0.6-2.9,0.6-4.3
		C71.5,78.9,71.4,78.3,71.1,77.9z"/>
	<path d="M90.1,7.8C89.9,7.9,89.7,8,89.4,8c-0.2-0.1-0.3-0.2-0.4-0.4c0.1,0,0.2,0,0.2,0c0.3,0.1,0.7-0.1,0.9,0L90.1,7.8z"/>
	<path d="M61,9.9c-0.6-0.4-1.1-0.9-1.4-1.7C60.8,8.6,62,9.1,63.3,9c0.5,0,1-0.2,1.5-0.2l0.1,0.1l0,0.2l-0.2,0.1
		C63.4,9.5,62.2,9.6,61,9.9z"/>
	<path d="M59.6,10.4L59.6,10.4L59.6,10.4z"/>
	<path d="M66.7,11.6L66.7,11.6L66.7,11.6z"/>
	<path d="M77.9,11.6L77.9,11.6L77.9,11.6z"/>
	<path d="M66.7,11.6c0.7,0.6,1.2,1.8,1.3,2.7C67.8,14.1,66.8,11.9,66.7,11.6z"/>
	<path d="M77.9,11.7L77.9,11.7L77.9,11.7z"/>
	<path d="M76.6,14.3c0-0.8,0.6-2.1,1.2-2.6C77.8,11.9,76.7,14.2,76.6,14.3z"/>
	<path d="M76.6,14.3L76.6,14.3L76.6,14.3z"/>
	<path d="M67.3,15L67.3,15L67.3,15z"/>
	<path d="M75.3,17.6c0-0.2,0.6-2.4,0.6-2.4l0.1,0C76.1,16.2,76.2,17,75.3,17.6z"/>
	<path d="M69.3,17.7c-0.2-0.1-0.3-0.2-0.4-0.4c-0.4-0.6-0.4-1.4-0.3-2.1C68.8,15.4,69.2,17.2,69.3,17.7z"/>
	<path d="M75.3,17.6L75.3,17.6L75.3,17.6z"/>
	<path d="M74.2,21.5l0-0.2c0.4-0.6,0.6-1.1,0.8-1.8c0,0,0,0.1,0,0.1c0.1,0.3,0,0.9-0.1,1.2C74.7,21.1,74.6,21.4,74.2,21.5z"/>
	<path d="M70.5,21.4C70.5,21.4,70.4,21.4,70.5,21.4c-0.2,0-0.4,0-0.5-0.2c-0.4-0.4-0.4-1.1-0.4-1.6c0.3,0.3,0.4,1.1,0.7,1.5
		C70.3,21.2,70.4,21.3,70.5,21.4z"/>
	<path d="M104.7,25.7c0.6-1.1,1-2.2,1.4-3.4c0.9,0.4,1.7,0.9,2.6,1.3c1.6,0.7,3.4,1.2,4.9,2.1c-0.3,0-0.5-0.1-0.8-0.1
		c0.4,0.2,0.9,0.2,1.4,0.4l-0.8,0.4c-0.4,0.2-0.9,0.3-1.3,0.4C109.8,27.2,106.6,27.1,104.7,25.7z M108.2,24.7h0.1H108.2z
		 M108.4,24.8h0.1H108.4z M108.4,24.9c1.3,0.5,2.8,0.9,4.2,1c-0.1-0.1-0.1-0.1-0.2-0.1C112.1,25.6,108.7,24.9,108.4,24.9z"/>
	<path d="M30.6,25.7c2.5-1.2,5.1-2,7.6-3.2c0.2,0.1,0.7,1.6,0.8,2c0.2,0.5,0.5,0.9,0.8,1.4c-4,1.2-5.8,1.7-9.8,0c0.6,0,1.3,0,1.9,0
		c1.2,0,2.3-0.2,3.4-0.4C35.2,25.4,31.2,25.6,30.6,25.7z M35.6,25.4h0.1H35.6z"/>
	<path d="M21.9,30.7c1.7-1.1,3.9-4.4,5.2-6.1c0.9,0.1,1.7,0.3,2.6,0.2c0.5,0,0.9-0.2,1.4-0.1l0,0.1c-0.3,0.3-1.2,0.9-1.6,1.3
		c-0.5,0.5-0.9,1.1-1.4,1.6c-0.8,0.9-1.7,1.7-2.7,2.3C24.3,30.7,23.3,30.9,21.9,30.7z"/>
	<path d="M101.5,29.1c1.1-1,2.1-1.8,3-3.1c1.2,0.9,3.1,1.3,4.6,1.8c0.9,0.3,1.4,0.6,2.2,1c0.2,0.1,0.5,0.2,0.6,0.4l-0.2,0.1
		c0.2,0.2,0.4,0,0.5,0.2c-0.2,0.3-2,0.9-2.5,1c-1.3,0.3-2.6,0.3-3.8,0.1c-1.5-0.3-2.7-0.8-4.1-1.5C101.8,29,101.6,29,101.5,29.1z
		 M106.8,28.1L106.8,28.1c0.8,0.6,3.9,1.3,4.9,1.2c-0.1-0.1-0.7-0.1-1-0.2C109.5,29,108,28.3,106.8,28.1L106.8,28.1z"/>
	<path d="M24.9,31.7c2-1.4,3.5-3.6,5-5.5c1.4,0.7,2.7,1,4.2,1.1c-0.6,0.3-2.8,1.2-3.1,1.6l0.2,0.3c-0.6,0.7-1.7,1.3-2.4,1.8
		C27.5,31.6,26.2,31.7,24.9,31.7z"/>
	<path d="M38.5,28.8c-1.8,0.6-4.3,0.8-6.1,0.1c2.1-1,5.5-1.9,7.8-2.7c0.9,1,1.7,1.7,2.8,2.6c-3.5,1.7-7.4,2.9-10.8,0.4
		c0.2,0,0.3,0.1,0.5,0.1C34.3,29.7,37.1,29.8,38.5,28.8L38.5,28.8L38.5,28.8z M38.8,28.7L38.8,28.7L38.8,28.7z M38.7,28.8L38.7,28.8
		L38.7,28.8z"/>
	<path d="M114.6,26.5l0.1-0.1L114.6,26.5z"/>
	<path d="M110.4,27.7c1.8-0.2,2.6-0.5,4.3-1.2c0.9,1.1,1.7,2,2.7,3c0.7,0.7,1.9,2,2.3,2.9c-0.9-0.8-1.8-1.6-2.6-2.4
		c-0.3-0.3-1.5-1.4-1.7-1.6c1.4,1.6,2.7,2.5,4,3.8c-1.3-0.4-2-0.6-3.2-1.2c-0.8-0.4-2.3-1.6-2.9-1.7l-0.1,0.1c0,0.4,0.3,0.5,0.6,0.8
		c1.6,1.2,3.5,2.3,5.5,2.7c0.3,0.1,0.7,0.1,1,0.2c-1.3,1-1,0.2-2.1,0.4l0,0c0.4,0.1,0.8,0.1,1.2,0.2c-2.8,1.4-6.7,0-9.3-1.4
		c-3.1,1.1-5.4,2-8.6,0.4c-1.1-0.5-2.1-1.2-3-2c1.3-0.5,2-1,3.2-1.7c0.1,0.1,0.1,0.2,0.2,0.2c1,0.8,6.6,3,7.7,2.9
		c0.1,0,0.1,0,0.1-0.1c-0.2-0.2-0.9-0.5-1.3-0.7c0.2,0,0.5-0.1,0.7-0.1c1.6-0.2,3.4-1,4.4-2.4C112.3,28.4,111.3,28.2,110.4,27.7z
		 M103.2,31.1L103.2,31.1c0.9,0.8,4.1,1.7,5.2,1.5l0,0c-0.2-0.1-1.3-0.2-1.7-0.2C105.5,32,104.4,31.4,103.2,31.1L103.2,31.1z
		 M113.1,31.3L113.1,31.3l0.2,0.2l0.1,0.1l0.2,0.1l0,0.1l0.2,0.1l0,0.1l0.1,0c0.6,0.7,3.2,1.6,4.2,1.8c-0.2-0.2-0.4-0.2-0.7-0.3
		c-1.2-0.3-2.3-1-3.5-1.5l-0.1,0l0-0.1l-0.2-0.1l0-0.1l-0.2-0.1l-0.1-0.1L113.1,31.3L113.1,31.3z M102.9,31L102.9,31L102.9,31z
		 M103.1,31L103.1,31L103.1,31z"/>
	<path d="M124.9,28.7L124.9,28.7L124.9,28.7z"/>
	<path d="M32.1,29.3L32.1,29.3L32.1,29.3z"/>
	<path d="M35.3,31.9c0.6-0.1,1.2-0.1,1.8-0.3c2-0.4,4.4-1.4,6.2-2.4c0.4,0.2,0.7,0.5,1.1,0.7c0.7,0.4,1.3,0.7,2,1.1
		c-1.2,1-2.8,1.9-4.4,2.3c-2.4,0.7-5.1,0.1-7.2-1.1c0.9,0.1,1.8,0.3,2.7,0.4c1.4,0,2.9-0.2,4.2-0.8l0,0
		C39.6,32.3,37.4,32.7,35.3,31.9z M42,31.7h0.1H42z"/>
	<path d="M28.6,34.4c-0.7,0-1.4,0-2.1-0.1c-0.6-0.1-1.5-0.2-1.9-0.7l0-0.1c0.2,0,0.3,0,0.5,0c-0.1-0.1-0.2-0.1-0.3-0.1
		c0.1-0.1,2.3-0.8,2.6-1c1.6-0.7,2.8-1.7,4-2.9c0.9,0.6,1.9,1.1,2.9,1.4c0.5,0.1,1,0.1,1.4,0.3c0,0.1,0,0.1-0.1,0.1
		c-0.2,0.2-0.6,0.3-0.8,0.4C33,33.1,31,34.3,28.6,34.4z M28.9,33c-0.7,0.1-1.4,0.3-2.1,0.4c-0.4,0.1-1.3,0.1-1.6,0.2l0,0.1
		C26.1,33.7,28.1,33.4,28.9,33L28.9,33L28.9,33z M29.1,32.9h0.1H29.1z"/>
	<path d="M44.7,33.7c-0.3,0.1-0.6,0.2-0.9,0.3c-1.2,0.5-4.3,1.4-5.4,0.9c0.1-0.1,1.3-0.3,1.5-0.4c2.8-0.8,4.6-1.7,6.8-3.5
		c0.9,0.2,1.9,0.3,2.7,0.5l-0.6,0.7c-1,1.1-2.2,2.2-3.4,3c-2.6,1.6-5.3,1-8-0.1C40,35.5,42.4,35.2,44.7,33.7
		C44.7,33.8,44.7,33.8,44.7,33.7L44.7,33.7L44.7,33.7z M45,33.6L45,33.6L45,33.6z M44.8,33.6L44.8,33.6L44.8,33.6z"/>
	<path d="M26.1,36.2c0.8-0.1,1.5-0.4,2.3-0.6c2.4-0.7,4.6-1.5,6.7-2.9c0.4,0,1.7,1,2.3,1.2c0.7,0.3,1.4,0.3,2.1,0.3
		c-0.8,0.4-1.6,0.7-2.5,0.8l0.6,0.4c-2.1,1.3-4.2,1.5-6.6,1.6C29.3,36.9,27.6,36.9,26.1,36.2z M31.8,35.8l-0.1,0L31.8,35.8
		L31.8,35.8L31.8,35.8z M32.3,35.7L32.3,35.7L32.3,35.7z M31.4,35.8c-0.5,0.1-1,0.1-1.5,0.2l0,0.1l0,0C30.4,36.1,31,36.1,31.4,35.8
		L31.4,35.8z M27.5,36L27.5,36L27.5,36z M28.2,36c-0.1,0-0.4,0-0.5,0.1c0.5,0.1,1.1,0,1.6,0l0.3-0.1l0-0.1C29.1,36,28.7,36,28.2,36z
		"/>
	<path d="M28.7,39.8c3.8-0.1,6.4-1.5,9.2-4c0.4,0.1,0.8,0.4,1.2,0.6c1.1,0.6,2.3,0.5,3.5,0.5c-0.3,0.1-1,0.5-1.2,0.8
		c0,0,0,0.1,0.1,0.1c0.2,0.2,0.5,0.3,0.7,0.5c1.4,0.7,2.6,0.6,4,0.8c-0.2,0.2-0.4,0.4-0.6,0.6c-0.7,0.7-1.5,1.4-2.3,2
		c-2,1.3-4.7,1.8-7.1,1.7c-0.8,0-3.3-0.1-3.8-0.7c0.4-0.1,1-0.1,1.4-0.2c1.1-0.2,2.2-0.6,3.3-1.1c1.7-0.8,3.3-1.8,4.7-3.1l-0.7-0.4
		c-1.4,1.1-2.8,2.1-4.5,2.6C34.1,41.2,31.2,41,28.7,39.8z M35.6,39c-1,0.2-2,0.6-3,0.7c-0.3,0-0.9,0.1-1.1,0.2
		C32.2,40,35.1,39.5,35.6,39L35.6,39L35.6,39z M41,40.7L41,40.7c-0.6,0.2-1.3,0.5-1.8,0.7c-1.4,0.6-2.7,0.9-4.2,1.2
		c-0.2,0-0.8,0.1-0.9,0.2C35.3,42.9,39.9,41.6,41,40.7L41,40.7L41,40.7L41,40.7z M36.2,38.7L36.2,38.7L36.2,38.7z M36.1,38.8
		L36.1,38.8L36.1,38.8z M35.9,38.9L35.9,38.9L35.9,38.9z M35.8,38.9h0.1H35.8z M30.9,39.8l-0.1,0.1c0.1,0,0.1,0,0.2,0l0.2,0
		C31.1,39.8,31,39.8,30.9,39.8z M31.4,39.9L31.4,39.9L31.4,39.9z M41.3,40.5L41.3,40.5L41.3,40.5z M41.2,40.6L41.2,40.6L41.2,40.6z"
		/>
	<path d="M103.8,40.4L103.8,40.4l0.1,0.1c1.1,1.2,3.9,2.2,5.5,2.5c0.5,0.1,0.9,0.1,1.3,0.2c-3.8,0.5-6.3,0.3-9.8-1.8
		c-0.5-0.3-1.5-1.1-2-1.1l0,0.1c0.4,0.8,5.3,3.8,6.3,4.4c0.4,0.2,1.7,0.8,2.1,1c-2.9,0.1-3.5-0.5-5.9-2c-0.3-0.2-1-0.6-1.4-0.8
		l-0.1-0.1l-0.1-0.1l0.1,0.1l0.1,0.1c1,0.9,2.7,1.7,3.7,2.4c-2-0.3-3.9-0.7-5.8-1.5c-0.2-0.1-0.5-0.2-0.7-0.3l0,0l0,0
		c0.2,0.2,0.6,0.5,0.8,0.6c1.9,1.5,4.4,1.8,6.7,2c0.7,0.1,1.5,0,2.3,0.1c-0.6,0.2-1.1,0.2-1.7,0.3c-0.5,0-1,0.1-1.4,0.5
		c-0.3,0.2-0.1,0.2-0.2,0.5l-0.7-0.1c-0.1,0.3-0.1,0.6-0.2,0.8c-2.4-1.1-4.9-3.3-6.6-5.3c-0.6-0.7-0.9-1.6-1.9-2
		c-0.2-0.1-0.5-0.4-0.6-0.6c0.1,0,0.1,0,0.2,0c1.8,0.3,3.9,0.5,5.4-0.6c-0.6-0.3-1.4-0.9-2-1.3c2.5,0.7,4.5,0.4,6.9-0.6
		c-0.6-0.3-1.3-0.5-1.9-0.8c1.6,0,2.6-0.2,3.9-1.1c1.7,1.3,5.4,3.1,7.5,3.8c0.6,0.2,1.6,0.3,2.2,0.3c-0.1,0.1-0.3,0.1-0.4,0.2
		c-3,1.2-6.6,0.9-9.5-0.5c-1-0.5-2-1.1-3-1.5c2,2.1,6.3,3.9,9,4.6c-2.1,0.4-4.4-0.4-6.3-1.3c-0.6-0.3-1.3-0.7-1.9-1L103.8,40.4
		L103.8,40.4z M108.3,38.6L108.3,38.6l0.2,0.1c1.2,1,3.8,1.9,5.4,2c-0.2-0.2-2.2-0.6-2.7-0.8c-0.8-0.3-2-1-2.7-1.2L108.3,38.6
		L108.3,38.6z M108,38.5L108,38.5L108,38.5z M108.1,38.6L108.1,38.6L108.1,38.6z"/>
	<path d="M42.8,37.7l0,0.1L42.8,37.7z"/>
	<path d="M94.2,44L94.2,44c0.8,1.5,2.7,3.2,4.1,4c-0.1,0-0.3,0-0.4-0.1c-2-0.4-4.8-1.5-5.9-3.2c-0.3-0.5-0.9-1.9-0.7-2.4
		c0.2-0.1,0.5,0,0.8,0c1.1,0,1.6-0.4,2.4-1.2l0.2,0.5c1.3,2.5,4.6,5.7,7.3,6.7c-2.5,0-4.1-0.8-5.9-2.5C95.5,45.3,94.8,44.6,94.2,44
		L94.2,44L94.2,44z"/>
	<path d="M93.1,47.9L93.1,47.9l0.2,0.2l0.1,0.1l0.1,0.1l0,0c0.4,0.6,1.3,1.1,1.4,1.4c-0.2,1.7-1.2,1.1-2,0.2c-1.5-1.7-2-3.6-1.8-5.8
		c0.7,1.6,0.9,2,2.3,3.1c2,1.3,4,1.8,6.4,1.9c0.5,0,0.9-0.1,1.3,0l0,0c-1.6,0.7-3.4,0.6-5.2,0.4c-1.5-0.2-1.2-0.4-2.4-1.2l0,0l0,0
		l-0.1-0.1l-0.1-0.1L93.1,47.9L93.1,47.9z"/>
	<path d="M37.2,46.4c2.8,0.5,6.7-0.2,9.2-1.4l0.1,0l0,0.1c-1,0.9-2.3,1.9-3.5,2.4c-1.5,0.6-3,0.2-4.4-0.4
		C38,46.9,37.6,46.7,37.2,46.4z"/>
	<path d="M49.7,50.8c0-0.1-0.1-0.1-0.1-0.2c-0.1-0.2-0.2-0.8-0.2-0.9c0.3-0.7,2.2-1.5,2.9-1.7l0.1,0.1c-0.1,0.9-0.5,2-1.2,2.7
		c-0.2,0.3-0.6,0.5-0.9,0.4C50,51.1,49.8,51,49.7,50.8z"/>
	<path d="M44.1,48.1L44.1,48.1L44.1,48.1z"/>
	<path d="M91.1,48.2L91.1,48.2L91.1,48.2z"/>
	<path d="M97.2,50.5c2.1,0,4.1-0.7,5.8-1.8l0,0.1c-0.6,1.2-1.6,2.7-2.6,3.6c-0.4,0.4-0.9,0.7-1.4,0.7c-0.5,0-0.8-0.4-1.1-0.7
		C97.5,51.7,97.3,51.3,97.2,50.5z"/>
	<path d="M59,49.2L59,49.2L59,49.2z"/>
	<path d="M86,49.4L86,49.4L86,49.4z"/>
	<path d="M86.2,49.6L86.2,49.6L86.2,49.6z"/>
	<path d="M46.4,52.8c-0.2,0.2-0.4,0.3-0.6,0.4c-0.5,0.1-1-0.1-1.3-0.3c-0.6-0.4-2.6-2.5-2.8-3.2c0.7,0.1,1.5,0.3,2.2,0.4
		c0.7,0.1,2.2,0,2.8,0.3c0.1,0,0.1,0.1,0.1,0.2C47.1,51.2,46.7,52.2,46.4,52.8z"/>
	<path d="M86.9,50.4L86.9,50.4L86.9,50.4z"/>
	<path d="M86.9,50.4l0.1,0.2L86.9,50.4z"/>
	<path d="M87,50.6L87,50.6L87,50.6z"/>
	<path d="M87.3,51.1L87.3,51.1L87.3,51.1z"/>
	<path d="M69.7,57.4L69.7,57.4L69.7,57.4z"/>
	<path d="M69.7,57.5L69.7,57.5L69.7,57.5z"/>
	<path d="M35.1,57.7L35.1,57.7L35.1,57.7z"/>
	<path d="M35,57.8l0.1-0.1L35,57.8z"/>
	<path d="M110,59.2l-0.2,0l-0.1-0.1l0.2,0L110,59.2z"/>
	<path d="M110,59.2c0.1,0.1,0.2,0.3,0.2,0.5c0,0.1-0.1,0.2-0.1,0.3C110,59.8,109.8,59.6,110,59.2C110,59.3,110,59.3,110,59.2z"/>
	<path d="M108.3,60.2L108.3,60.2c-0.2-0.1-0.3-0.4-0.4-0.6c0.1,0.1,0.3,0.2,0.4,0.3C108.4,60.1,108.4,60.1,108.3,60.2z"/>
	<path d="M107.5,60.7c-0.2-0.1-0.3-0.5-0.5-0.7c0.1,0,0.2,0.1,0.4,0.1C107.5,60.4,107.5,60.5,107.5,60.7z"/>
	<path d="M54.2,60.3c-0.1,0-0.1,0-0.2,0C54.1,60.2,54.1,60.2,54.2,60.3z"/>
	<path d="M50.6,60.5L50.6,60.5L50.6,60.5z"/>
	<path d="M36.9,62.6l-0.2-0.1c-0.2-0.2-0.2-0.5-0.3-0.7C36.7,62,36.8,62.3,36.9,62.6z"/>
	<path d="M95.3,63.3C95.3,63.3,95.3,63.3,95.3,63.3c-0.1-0.4,0.4-0.8,0.6-1.1c0,0.1,0,0.1,0,0.1C95.9,62.7,95.5,63.1,95.3,63.3z"/>
	<path d="M96.3,62.2L96.3,62.2L96.3,62.2z"/>
	<path d="M109.6,63.3L109.6,63.3L109.6,63.3z"/>
	<path d="M109.6,63.3L109.6,63.3L109.6,63.3z"/>
	<path d="M89.8,64.7L89.8,64.7L89.8,64.7z"/>
	<path d="M89.8,64.7L89.8,64.7L89.8,64.7z"/>
	<path d="M90.1,65.5L90.1,65.5L90.1,65.5z"/>
	<path d="M55.2,65.9L55.2,65.9L55.2,65.9z"/>
	<path d="M55.2,65.9L55.2,65.9L55.2,65.9z"/>
	<path d="M106.8,68.3L106.8,68.3L106.8,68.3z"/>
	<path d="M104,70.5L104,70.5L104,70.5z"/>
	<path d="M38.6,71.8L38.6,71.8L38.6,71.8z"/>
	<path d="M141,79.6L141,79.6L141,79.6z"/>
</g>
</svg>
